<?xml version="1.0" standalone="no"?>
<!DOCTYPE svg PUBLIC "-//W3C//DTD SVG 1.1//EN" "http://www.w3.org/Graphics/SVG/1.1/DTD/svg11.dtd" >
<svg xmlns="http://www.w3.org/2000/svg">
<metadata>Generated by IcoMoon</metadata>
<defs>
<font id="icomoon" horiz-adv-x="1024">
<font-face units-per-em="1024" ascent="960" descent="-64" />
<missing-glyph horiz-adv-x="1024" />
<glyph unicode="&#x20;" horiz-adv-x="512" d="" />
<glyph unicode="&#xe900;" glyph-name="pinterest" d="M441.19 295.578c-26.931-141.005-59.75-276.173-157.082-346.778-30.003 213.094 44.083 373.094 78.541 542.976-58.726 98.816 7.066 297.574 130.816 248.576 152.32-60.211-131.891-367.206 58.88-405.606 199.219-39.987 280.525 345.6 156.979 470.989-178.432 181.146-519.475 4.25-477.491-255.078 10.189-63.386 75.674-82.586 26.163-170.086-114.227 25.293-148.326 115.405-143.923 235.52 7.066 196.608 176.589 334.182 346.675 353.28 215.091 24.115 416.973-79.002 444.877-281.293 31.386-228.403-97.075-475.802-327.117-457.984-62.362 4.864-88.474 35.789-137.318 65.485z" />
<glyph unicode="&#xe901;" d="M0 448v512h1024v-1024h-1024v512z" />
<glyph unicode="&#xe902;" d="M0 448v512h1024v-1024h-1024v512zM501.76 48.64l-238.446 4.389v118.491l234.057-4.389c128.731-2.926 234.057 0 234.057 5.851 0 7.314-16.091 11.703-35.109 11.703-20.48 0-40.96 7.314-45.349 16.091-5.851 7.314-26.331 20.48-45.349 27.794-20.48 8.777-42.423 29.257-49.737 46.811-7.314 19.017-13.166 23.406-13.166 11.703-1.463-33.646 17.554-55.589 64.366-76.069 43.886-19.017 43.886-19.017-32.183-23.406-42.423-2.926-112.64-2.926-153.6 0l-77.531 5.851 45.349 17.554c43.886 17.554 78.994 68.754 78.994 112.64 0 11.703 13.166 21.943 29.257 21.943s29.257-5.851 29.257-13.166c0-20.48 131.657 103.863 160.914 153.6 19.017 29.257 48.274 51.2 87.771 62.903 62.903 19.017 117.029 84.846 117.029 140.434-1.463 17.554-10.24 5.851-21.943-26.331-17.554-49.737-57.051-96.549-83.383-98.011-4.389 0-20.48-4.389-35.109-10.24-20.48-7.314-23.406-2.926-14.629 33.646 4.389 23.406-10.24 1.463-35.109-48.274-65.829-133.12-152.137-196.023-241.371-174.080-49.737 13.166-146.286 100.937-168.229 155.063-10.24 24.869-23.406 43.886-30.72 43.886-16.091 0-17.554-24.869-1.463-32.183 5.851-2.926 29.257-32.183 51.2-67.291 21.943-33.646 62.903-73.143 90.697-86.309 35.109-16.091 51.2-35.109 51.2-55.589 0-38.034-39.497-95.086-64.366-95.086-11.703 0-27.794-8.777-38.034-20.48-8.777-11.703-35.109-23.406-55.589-26.331-36.571-4.389-39.497-10.24-43.886-74.606l-4.389-68.754 491.52 5.851-236.983 4.389zM197.486 573.806c-54.126 27.794-49.737 23.406-73.143 89.234-11.703 30.72-20.48 43.886-21.943 29.257-1.463-62.903 62.903-140.434 117.029-141.897 11.703 0 2.926 10.24-21.943 23.406zM484.206 565.029c19.017 11.703 36.571 10.24 57.051 0 26.331-14.629 29.257-11.703 29.257 26.331 0 21.943 7.314 48.274 17.554 58.514 13.166 13.166 10.24 19.017-11.703 26.331-14.629 5.851-38.034 23.406-51.2 39.497l-24.869 29.257-8.777-29.257c-5.851-17.554-26.331-35.109-46.811-39.497-36.571-10.24-38.034-11.703-13.166-38.034 14.629-16.091 21.943-40.96 17.554-58.514-8.777-33.646-4.389-35.109 35.109-14.629zM250.149 625.006c-7.314 19.017-14.629 27.794-14.629 17.554-1.463-21.943 14.629-65.829 21.943-58.514 4.389 2.926 0 21.943-7.314 40.96zM756.297 663.040c-5.851 4.389-10.24 0-10.24-10.24s4.389-14.629 10.24-10.24c4.389 5.851 4.389 14.629 0 20.48zM220.891 742.034c-8.777 35.109-16.091 73.143-16.091 81.92 0 14.629 68.754 19.017 294.034 19.017h294.034l-8.777-62.903c-4.389-33.646-4.389-49.737 0-36.571 10.24 33.646 102.4 36.571 112.64 4.389 5.851-16.091 5.851-14.629 4.389 2.926-1.463 19.017-16.091 27.794-49.737 30.72-38.034 4.389-46.811 10.24-46.811 40.96v35.109h-614.4v-35.109c0-30.72-8.777-36.571-46.811-40.96-33.646-2.926-48.274-11.703-49.737-30.72-1.463-17.554-1.463-19.017 4.389-2.926 4.389 13.166 24.869 21.943 55.589 21.943 43.886 0 48.274-4.389 58.514-52.663 4.389-29.257 11.703-49.737 16.091-45.349 4.389 2.926 0 35.109-7.314 70.217zM770.926 706.926c-5.851 4.389-10.24 0-10.24-10.24s4.389-14.629 10.24-10.24c4.389 5.851 4.389 14.629 0 20.48z" />
<glyph unicode="&#xe903;" d="M468.114 611.84c0 14.629-5.851 26.331-14.629 26.331-7.314 0-14.629 5.851-14.629 14.629 0 7.314 10.24 14.629 21.943 14.629 10.24 0 26.331 11.703 35.109 24.869 13.166 24.869 14.629 24.869 23.406 0 5.851-13.166 20.48-24.869 32.183-24.869 14.629 0 19.017-8.777 13.166-23.406-4.389-13.166-8.777-30.72-8.777-40.96s-19.017-19.017-43.886-19.017c-32.183 0-43.886 7.314-43.886 27.794z" />
<glyph unicode="&#xe904;" d="M0 448v512h1024v-1024h-1024v512zM743.131 108.617c4.389 48.274-1.463 62.903-21.943 70.217-92.16 30.72-156.526 74.606-168.229 115.566-10.24 39.497-4.389 49.737 54.126 99.474 36.571 32.183 76.069 76.069 87.771 98.011 13.166 26.331 38.034 45.349 64.366 51.2 71.68 16.091 114.103 58.514 133.12 137.509 20.48 86.309 13.166 103.863-45.349 103.863-35.109 0-42.423 5.851-42.423 36.571v36.571h-614.4v-36.571c0-30.72-7.314-36.571-42.423-36.571-58.514 0-65.829-17.554-45.349-103.863 19.017-77.531 61.44-121.417 128.731-137.509 26.331-4.389 51.2-27.794 73.143-65.829 17.554-32.183 59.977-76.069 92.16-98.011 51.2-33.646 57.051-43.886 49.737-76.069-11.703-46.811-33.646-74.606-58.514-74.606-10.24 0-26.331-10.24-36.571-21.943s-36.571-21.943-59.977-21.943c-40.96 0-42.423-2.926-42.423-73.143v-73.143l245.76 2.926 244.297 4.389 4.389 62.903z" />
<glyph unicode="&#xe905;" d="M266.24 107.154l4.389 55.589 446.171 8.777v-118.491h-454.949l4.389 54.126z" />
<glyph unicode="&#xe906;" d="M351.086 192c0 4.389 21.943 16.091 49.737 27.794 40.96 17.554 52.663 32.183 61.44 73.143 13.166 73.143 54.126 71.68 77.531-4.389 11.703-42.423 27.794-61.44 59.977-73.143 24.869-7.314 43.886-17.554 43.886-21.943 0-5.851-65.829-8.777-146.286-8.777s-146.286 2.926-146.286 7.314z" />
<glyph unicode="&#xe907;" d="M431.543 380.709c-55.589 23.406-119.954 98.011-153.6 177.006-20.48 48.274-73.143 247.223-73.143 276.48 0 5.851 131.657 8.777 294.034 8.777h294.034l-10.24-48.274c-38.034-193.097-131.657-370.103-216.503-409.6-61.44-29.257-76.069-29.257-134.583-4.389zM484.206 565.029c19.017 11.703 36.571 10.24 57.051 0 26.331-14.629 29.257-11.703 29.257 27.794 0 24.869 8.777 45.349 23.406 51.2 29.257 11.703 11.703 38.034-26.331 38.034-16.091 0-32.183 11.703-36.571 29.257-4.389 16.091-13.166 29.257-19.017 29.257-7.314 0-17.554-13.166-21.943-29.257s-20.48-29.257-35.109-29.257c-39.497 0-48.274-17.554-21.943-45.349 13.166-14.629 20.48-39.497 16.091-57.051-8.777-33.646-4.389-35.109 35.109-14.629z" />
<glyph unicode="&#xe908;" d="M468.114 610.377c0 14.629-7.314 30.72-16.091 35.109-8.777 5.851 1.463 19.017 26.331 32.183 26.331 13.166 42.423 16.091 45.349 5.851 2.926-8.777 14.629-16.091 26.331-16.091 23.406 0 27.794-23.406 5.851-36.571-7.314-4.389-10.24-16.091-5.851-27.794 4.389-13.166-7.314-19.017-38.034-19.017-32.183 0-43.886 7.314-43.886 26.331z" />
<glyph unicode="&#xe909;" d="M206.263 569.417c-48.274 23.406-84.846 80.457-96.549 144.823-8.777 55.589-8.777 55.589 39.497 55.589s49.737-1.463 76.069-103.863c14.629-57.051 23.406-105.326 20.48-108.251s-20.48 1.463-39.497 11.703z" />
<glyph unicode="&#xe90a;" d="M738.743 578.194c4.389 13.166 19.017 61.44 32.183 106.789 23.406 81.92 24.869 84.846 74.606 84.846 45.349 0 49.737-2.926 40.96-33.646-4.389-17.554-8.777-43.886-8.777-57.051 0-36.571-68.754-109.714-109.714-118.491-30.72-4.389-36.571-1.463-29.257 17.554z" />
<glyph unicode="&#xe90b;" d="M0 448v512h1024v-1024h-1024v512zM746.057 104.229c0 51.2-5.851 68.754-24.869 74.606-43.886 14.629-143.36 68.754-153.6 84.846-24.869 36.571-11.703 92.16 26.331 111.177 20.48 11.703 57.051 51.2 80.457 89.234 33.646 51.2 58.514 71.68 100.937 84.846 68.754 20.48 111.177 70.217 124.343 149.211 11.703 67.291-8.777 100.937-59.977 100.937-24.869 0-35.109 8.777-35.109 29.257 0 27.794-10.24 29.257-307.2 29.257s-307.2-1.463-307.2-29.257c0-20.48-10.24-29.257-35.109-29.257-51.2 0-71.68-33.646-59.977-98.011 14.629-80.457 45.349-119.954 118.491-152.137 38.034-17.554 73.143-45.349 86.309-70.217 20.48-39.497 76.069-93.623 130.194-125.806 43.886-26.331 14.629-89.234-59.977-131.657-36.571-20.48-78.994-36.571-93.623-36.571-23.406 0-27.794-11.703-27.794-73.143v-73.143h497.371v65.829z" />
<glyph unicode="&#xe90c;" d="M266.24 107.154l4.389 55.589 446.171 8.777v-118.491h-454.949l4.389 54.126z" />
<glyph unicode="&#xe90d;" d="M370.103 193.463c5.851 5.851 24.869 17.554 42.423 26.331 20.48 10.24 39.497 38.034 46.811 71.68 19.017 74.606 55.589 71.68 81.92-7.314 14.629-40.96 32.183-64.366 51.2-67.291 16.091-2.926 35.109-11.703 42.423-19.017 8.777-7.314-43.886-13.166-130.194-13.166-78.994 0-138.971 4.389-134.583 8.777z" />
<glyph unicode="&#xe90e;" d="M447.634 376.32c-105.326 30.72-194.56 190.171-234.057 418.377l-7.314 48.274h586.606l-10.24-46.811c-30.72-157.989-119.954-346.697-181.394-390.583-49.737-35.109-100.937-45.349-153.6-29.257zM504.686 567.954c8.777 0 26.331-4.389 40.96-10.24 19.017-8.777 24.869-2.926 24.869 26.331 0 19.017 10.24 43.886 21.943 54.126 26.331 21.943 16.091 43.886-21.943 43.886-14.629 0-32.183 13.166-36.571 29.257-11.703 36.571-24.869 36.571-48.274 0-10.24-16.091-30.72-29.257-46.811-29.257-35.109 0-38.034-19.017-5.851-45.349 14.629-11.703 19.017-30.72 13.166-54.126-7.314-30.72-4.389-33.646 17.554-24.869 14.629 5.851 33.646 10.24 40.96 10.24z" />
<glyph unicode="&#xe90f;" d="M468.114 604.526c0 8.777-4.389 26.331-8.777 39.497-5.851 14.629-1.463 23.406 13.166 23.406 11.703 0 26.331 8.777 30.72 17.554 7.314 14.629 10.24 14.629 17.554 0 4.389-8.777 17.554-17.554 29.257-17.554 23.406 0 27.794-23.406 5.851-36.571-7.314-4.389-10.24-17.554-5.851-27.794 5.851-13.166-5.851-19.017-36.571-17.554-24.869 1.463-45.349 8.777-45.349 19.017z" />
<glyph unicode="&#xe910;" d="M169.691 597.211c-35.109 32.183-74.606 146.286-55.589 165.303 4.389 4.389 24.869 7.314 45.349 7.314 35.109 0 40.96-8.777 58.514-81.92 10.24-45.349 21.943-92.16 26.331-102.4 11.703-32.183-33.646-23.406-74.606 11.703z" />
<glyph unicode="&#xe911;" d="M766.537 667.429c27.794 92.16 35.109 102.4 68.754 102.4 51.2 0 55.589-7.314 40.96-77.531-14.629-65.829-70.217-127.269-114.103-127.269-26.331 0-24.869 4.389 4.389 102.4z" />
<glyph unicode="&#xe912;" d="M0 448v512h1024v-1024h-1024v512zM746.057 111.543c0 67.291-2.926 73.143-35.109 73.143-19.017 0-42.423 10.24-52.663 21.943s-26.331 21.943-38.034 21.943c-30.72 0-64.366 43.886-64.366 86.309 0 27.794 11.703 46.811 42.423 64.366 23.406 13.166 61.44 54.126 83.383 89.234 27.794 45.349 54.126 67.291 83.383 73.143 65.829 13.166 122.88 81.92 134.583 160.914 11.703 76.069 0 96.549-61.44 96.549-23.406 0-33.646 8.777-33.646 29.257 0 27.794-10.24 29.257-307.2 29.257s-307.2-1.463-307.2-29.257c0-20.48-10.24-29.257-32.183-29.257-61.44 0-76.069-20.48-64.366-89.234 13.166-86.309 43.886-127.269 112.64-157.989 32.183-14.629 76.069-52.663 102.4-87.771 24.869-35.109 64.366-73.143 87.771-86.309 42.423-24.869 57.051-77.531 30.72-112.64-17.554-26.331-119.954-80.457-150.674-80.457-23.406 0-27.794-10.24-27.794-73.143v-73.143h497.371v73.143z" />
<glyph unicode="&#xe913;" d="M276.48 55.954c0 2.926-1.463 26.331-2.926 52.663l-2.926 46.811h446.171v-102.4h-219.429c-119.954 0-219.429 1.463-220.891 2.926z" />
<glyph unicode="&#xe914;" d="M373.029 199.314c4.389 7.314 17.554 14.629 29.257 14.629 27.794 0 65.829 57.051 65.829 98.011 0 58.514 51.2 42.423 67.291-20.48 7.314-33.646 26.331-61.44 46.811-71.68 61.44-30.72 51.2-35.109-83.383-35.109-86.309 0-131.657 5.851-125.806 14.629z" />
<glyph unicode="&#xe915;" d="M383.269 412.891c-26.331 20.48-64.366 70.217-84.846 109.714-36.571 73.143-95.086 289.646-83.383 308.663 2.926 7.314 134.583 11.703 291.109 11.703h283.794l-8.777-40.96c-59.977-277.943-160.914-427.154-288.183-427.154-43.886 0-74.606 11.703-109.714 38.034zM573.44 586.971c-2.926 17.554 5.851 39.497 17.554 49.737 33.646 27.794 29.257 45.349-11.703 45.349-23.406 0-39.497 10.24-45.349 29.257-4.389 16.091-14.629 29.257-21.943 29.257s-20.48-13.166-29.257-29.257c-8.777-16.091-29.257-29.257-43.886-29.257-35.109 0-38.034-19.017-7.314-43.886 13.166-10.24 19.017-30.72 13.166-49.737-7.314-30.72-2.926-32.183 64.366-32.183 64.366 0 70.217 2.926 64.366 30.72z" />
<glyph unicode="&#xe916;" d="M473.966 603.063c4.389 11.703 1.463 23.406-5.851 27.794-21.943 13.166-17.554 36.571 5.851 36.571 11.703 0 24.869 8.777 29.257 17.554 7.314 14.629 10.24 14.629 17.554 0 4.389-8.777 17.554-17.554 29.257-17.554 24.869 0 24.869-2.926 2.926-45.349-20.48-36.571-92.16-54.126-78.994-19.017z" />
<glyph unicode="&#xe917;" d="M168.229 598.674c-29.257 24.869-40.96 51.2-46.811 102.4-8.777 67.291-7.314 68.754 33.646 68.754 39.497 0 43.886-5.851 62.903-81.92 10.24-45.349 21.943-92.16 26.331-102.4 11.703-32.183-33.646-23.406-76.069 13.166z" />
<glyph unicode="&#xe918;" d="M766.537 667.429c29.257 95.086 33.646 102.4 73.143 102.4 40.96 0 42.423-1.463 33.646-68.754-7.314-74.606-58.514-136.046-111.177-136.046-26.331 0-24.869 4.389 4.389 102.4z" />
<glyph unicode="&#xe919;" d="M0 448v512h1024v-1024h-1024v512zM743.131 107.154c4.389 70.217 1.463 77.531-26.331 77.531-17.554 0-48.274 13.166-68.754 29.257s-45.349 29.257-55.589 29.257c-21.943 0-36.571 32.183-36.571 77.531 0 20.48 16.091 40.96 43.886 57.051 24.869 14.629 62.903 54.126 84.846 90.697 29.257 48.274 51.2 67.291 86.309 74.606 57.051 10.24 117.029 77.531 130.194 144.823 14.629 80.457 4.389 103.863-49.737 108.251-39.497 4.389-48.274 10.24-43.886 36.571 4.389 32.183 2.926 32.183-305.737 36.571l-311.589 4.389v-36.571c0-30.72-7.314-36.571-46.811-40.96-40.96-4.389-49.737-10.24-52.663-46.811-8.777-71.68 36.571-163.84 90.697-190.171 27.794-13.166 57.051-23.406 65.829-23.406s24.869-19.017 36.571-42.423c23.406-43.886 117.029-133.12 140.434-133.12 8.777 0 14.629-19.017 14.629-42.423 0-45.349-32.183-89.234-64.366-89.234-11.703 0-27.794-10.24-38.034-21.943s-33.646-21.943-52.663-21.943c-32.183 0-35.109-5.851-35.109-70.217 0-39.497 4.389-76.069 10.24-81.92 5.851-4.389 115.566-7.314 244.297-5.851l235.52 4.389 4.389 76.069z" />
<glyph unicode="&#xe91a;" d="M277.943 104.229v51.2h438.857v-102.4h-438.857v51.2z" />
<glyph unicode="&#xe91b;" d="M373.029 199.314c4.389 7.314 17.554 14.629 29.257 14.629 27.794 0 65.829 57.051 65.829 98.011 0 58.514 51.2 42.423 67.291-20.48 7.314-33.646 26.331-61.44 46.811-71.68 61.44-30.72 51.2-35.109-83.383-35.109-86.309 0-131.657 5.851-125.806 14.629z" />
<glyph unicode="&#xe91c;" d="M399.36 402.651c-77.531 48.274-157.989 216.503-175.543 370.103l-8.777 70.217h279.406c153.6 0 282.331-4.389 285.257-10.24 4.389-7.314-1.463-45.349-11.703-84.846-39.497-149.211-83.383-244.297-144.823-308.663-52.663-54.126-70.217-64.366-119.954-64.366-30.72 0-77.531 13.166-103.863 27.794zM576.366 586.971c-4.389 19.017 1.463 39.497 14.629 49.737 32.183 26.331 29.257 45.349-5.851 45.349-16.091 0-39.497 17.554-54.126 38.034l-23.406 38.034-20.48-38.034c-11.703-21.943-32.183-38.034-48.274-38.034-35.109 0-38.034-19.017-7.314-43.886 13.166-10.24 19.017-30.72 13.166-49.737-7.314-30.72-2.926-32.183 65.829-32.183 67.291 0 73.143 2.926 65.829 30.72z" />
<glyph unicode="&#xe91d;" d="M473.966 603.063c4.389 10.24 1.463 23.406-5.851 27.794-21.943 13.166-17.554 36.571 7.314 36.571 11.703 0 21.943 7.314 21.943 14.629 0 8.777 17.554 4.389 38.034-10.24 21.943-13.166 32.183-27.794 21.943-30.72-8.777-2.926-16.091-14.629-16.091-24.869s-17.554-21.943-38.034-26.331c-26.331-4.389-35.109-1.463-29.257 13.166z" />
<glyph unicode="&#xe91e;" d="M185.783 581.12c-35.109 20.48-68.754 90.697-68.754 144.823 0 40.96 4.389 45.349 38.034 40.96 33.646-2.926 42.423-14.629 57.051-70.217 8.777-36.571 21.943-80.457 27.794-99.474 11.703-35.109-8.777-42.423-54.126-16.091z" />
<glyph unicode="&#xe91f;" d="M769.463 663.040c27.794 84.846 38.034 99.474 70.217 103.863 33.646 4.389 38.034 0 38.034-40.96 0-81.92-58.514-160.914-121.417-160.914-16.091 0-13.166 20.48 13.166 98.011z" />
<glyph unicode="&#xe920;" d="M0 448v512h1024v-1024h-1024v512zM743.131 107.154c4.389 68.754 1.463 77.531-24.869 77.531-43.886 0-147.749 74.606-157.989 114.103-7.314 27.794 2.926 45.349 51.2 89.234 32.183 29.257 73.143 74.606 90.697 99.474 17.554 26.331 40.96 48.274 52.663 48.274 80.457 0 157.989 103.863 149.211 201.874-4.389 49.737-8.777 54.126-51.2 58.514-39.497 4.389-46.811 10.24-43.886 36.571l2.926 32.183h-629.029l4.389-32.183c4.389-26.331-4.389-32.183-43.886-36.571-43.886-4.389-48.274-8.777-52.663-58.514-8.777-98.011 68.754-201.874 147.749-201.874 11.703 0 39.497-30.72 62.903-67.291s64.366-78.994 89.234-95.086c26.331-17.554 48.274-42.423 48.274-57.051 0-40.96-16.091-73.143-36.571-73.143-10.24 0-35.109-13.166-55.589-29.257s-51.2-29.257-67.291-29.257c-27.794 0-30.72-8.777-30.72-80.457v-80.457l245.76 2.926 244.297 4.389 4.389 76.069z" />
<glyph unicode="&#xe921;" d="M277.943 104.229v51.2h438.857v-102.4h-438.857v51.2z" />
<glyph unicode="&#xe922;" d="M394.971 203.703c49.737 23.406 71.68 54.126 73.143 100.937 0 30.72 7.314 40.96 29.257 40.96 20.48 0 29.257-10.24 29.257-33.646 0-40.96 38.034-98.011 65.829-98.011 11.703 0 24.869-7.314 29.257-14.629 5.851-8.777-39.497-14.629-127.269-13.166-115.566 0-130.194 2.926-99.474 17.554z" />
<glyph unicode="&#xe923;" d="M392.046 411.429c-59.977 40.96-112.64 140.434-149.211 279.406-42.423 165.303-64.366 152.137 254.537 152.137h277.943v-33.646c0-52.663-42.423-184.32-89.234-275.017-77.531-156.526-181.394-198.949-294.034-122.88zM535.406 551.863c39.497-17.554 55.589-1.463 42.423 40.96-4.389 14.629 1.463 35.109 14.629 45.349 30.72 24.869 27.794 43.886-7.314 43.886-16.091 0-39.497 17.554-54.126 38.034l-23.406 38.034-20.48-38.034c-11.703-20.48-32.183-38.034-48.274-38.034-36.571 0-52.663-26.331-23.406-38.034 14.629-5.851 23.406-27.794 23.406-58.514 0-46.811 2.926-49.737 30.72-33.646 23.406 11.703 40.96 11.703 65.829 0z" />
<glyph unicode="&#xe924;" d="M475.429 610.377c4.389 5.851 1.463 14.629-5.851 20.48-8.777 4.389-4.389 19.017 10.24 35.109 21.943 21.943 27.794 23.406 48.274 5.851 33.646-29.257 19.017-74.606-24.869-74.606-19.017 0-30.72 5.851-27.794 13.166z" />
<glyph unicode="&#xe925;" d="M188.709 586.971c-40.96 21.943-71.68 87.771-71.68 149.211 0 29.257 5.851 35.109 38.034 30.72 35.109-4.389 42.423-14.629 64.366-103.863 14.629-54.126 21.943-98.011 16.091-98.011-4.389 1.463-26.331 10.24-46.811 21.943z" />
<glyph unicode="&#xe926;" d="M746.057 575.269c0 7.314 13.166 51.2 27.794 99.474 23.406 74.606 32.183 87.771 65.829 92.16 32.183 4.389 38.034-1.463 38.034-30.72 0-64.366-32.183-127.269-74.606-149.211-46.811-24.869-57.051-26.331-57.051-11.703z" />
<glyph unicode="&#xe927;" d="M0 448v512h1024v-1024h-1024v512zM743.131 107.154c-2.926 65.829-10.24 84.846-27.794 84.846-11.703 0-38.034 10.24-58.514 23.406-19.017 11.703-46.811 26.331-59.977 32.183-14.629 4.389-29.257 26.331-35.109 46.811-8.777 32.183-1.463 46.811 43.886 83.383 30.72 24.869 70.217 70.217 90.697 100.937 19.017 32.183 46.811 57.051 61.44 57.051 13.166 0 45.349 13.166 71.68 29.257 51.2 30.72 83.383 109.714 74.606 182.857-2.926 35.109-13.166 45.349-48.274 51.2-32.183 5.851-43.886 16.091-43.886 36.571 0 27.794-10.24 29.257-314.514 29.257h-314.514l2.926-32.183c2.926-26.331-4.389-32.183-43.886-36.571s-46.811-10.24-51.2-48.274c-8.777-73.143 23.406-152.137 74.606-182.857 26.331-16.091 57.051-29.257 68.754-29.257s40.96-29.257 62.903-65.829c23.406-35.109 64.366-78.994 92.16-95.086 52.663-33.646 62.903-67.291 32.183-103.863-27.794-33.646-95.086-71.68-125.806-71.68-14.629 0-33.646-7.314-43.886-17.554-19.017-19.017-24.869-131.657-7.314-147.749 4.389-5.851 119.954-10.24 256-10.24h247.223l-4.389 83.383z" />
<glyph unicode="&#xe928;" d="M277.943 111.543v43.886h438.857v-87.771h-438.857v43.886z" />
<glyph unicode="&#xe929;" d="M380.343 196.389c0 1.463 16.091 10.24 36.571 17.554 21.943 8.777 39.497 29.257 45.349 54.126 14.629 70.217 19.017 77.531 42.423 77.531 11.703 0 21.943-13.166 21.943-29.257 0-48.274 30.72-96.549 70.217-111.177 27.794-10.24 4.389-13.166-89.234-13.166-70.217 0-127.269 1.463-127.269 4.389z" />
<glyph unicode="&#xe92a;" d="M438.857 385.097c-40.96 14.629-105.326 84.846-140.434 155.063-35.109 68.754-89.234 269.166-76.069 282.331 10.24 8.777 539.794 8.777 550.034-1.463 14.629-13.166-55.589-229.669-98.011-307.2-61.44-111.177-150.674-159.451-235.52-128.731zM479.817 553.326c13.166 13.166 26.331 13.166 54.126 0 52.663-24.869 55.589-23.406 46.811 24.869-5.851 27.794-1.463 48.274 11.703 59.977 30.72 24.869 27.794 43.886-7.314 43.886-17.554 0-36.571 14.629-46.811 36.571-20.48 43.886-35.109 46.811-55.589 7.314-8.777-16.091-32.183-33.646-51.2-38.034-42.423-10.24-45.349-23.406-14.629-49.737 11.703-10.24 21.943-36.571 21.943-59.977 0-45.349 13.166-52.663 40.96-24.869z" />
<glyph unicode="&#xe92b;" d="M482.743 617.691c0 11.703-8.777 20.48-17.554 20.48-10.24 0-2.926 10.24 14.629 23.406 26.331 19.017 35.109 19.017 52.663 2.926 10.24-10.24 14.629-29.257 10.24-40.96-11.703-27.794-59.977-32.183-59.977-5.851z" />
<glyph unicode="&#xe92c;" d="M197.486 581.12c-40.96 20.48-62.903 58.514-74.606 130.194-8.777 55.589-7.314 58.514 29.257 58.514 29.257 0 39.497-8.777 46.811-40.96 4.389-21.943 17.554-67.291 27.794-102.4 20.48-64.366 19.017-68.754-29.257-45.349z" />
<glyph unicode="&#xe92d;" d="M750.446 584.046c2.926 8.777 17.554 55.589 30.72 100.937 21.943 74.606 29.257 84.846 62.903 84.846 35.109 0 36.571-2.926 27.794-59.977-5.851-33.646-16.091-71.68-23.406-86.309-16.091-30.72-109.714-68.754-98.011-39.497z" />
<glyph unicode="&#xe92e;" d="M0 448v512h1024v-1024h-1024v512zM746.057 104.229c0 64.366-5.851 83.383-24.869 90.697-90.697 29.257-149.211 67.291-156.526 100.937-8.777 32.183 0 46.811 52.663 93.623 35.109 30.72 73.143 71.68 83.383 92.16 11.703 23.406 43.886 45.349 78.994 57.051 70.217 21.943 109.714 71.68 128.731 156.526 16.091 74.606 0 103.863-59.977 103.863-35.109 0-39.497 4.389-32.183 36.571l5.851 36.571h-646.583v-36.571c0-29.257-7.314-36.571-36.571-36.571-20.48 0-42.423-11.703-51.2-29.257-36.571-67.291 55.589-234.057 128.731-234.057 19.017 0 49.737-27.794 81.92-73.143 27.794-39.497 71.68-81.92 96.549-95.086 23.406-11.703 43.886-32.183 43.886-45.349 0-35.109-27.794-78.994-49.737-78.994-11.703 0-27.794-8.777-38.034-20.48-8.777-11.703-38.034-23.406-62.903-26.331-43.886-4.389-46.811-8.777-51.2-68.754-7.314-108.251-17.554-103.863 260.389-103.863h248.686v80.457z" />
<glyph unicode="&#xe92f;" d="M277.943 111.543v43.886h433.006l5.851-87.771h-438.857v43.886z" />
<glyph unicode="&#xe930;" d="M419.84 213.943c17.554 7.314 39.497 36.571 49.737 64.366 21.943 58.514 57.051 70.217 57.051 19.017 0-38.034 24.869-76.069 58.514-87.771 11.703-4.389-27.794-7.314-87.771-8.777-76.069 0-99.474 4.389-77.531 13.166z" />
<glyph unicode="&#xe931;" d="M438.857 390.949c-89.234 35.109-146.286 125.806-191.634 301.349-14.629 61.44-27.794 117.029-27.794 124.343 0 5.851 124.343 11.703 276.48 11.703h277.943l-8.777-54.126c-13.166-81.92-73.143-238.446-118.491-302.811-36.571-52.663-108.251-98.011-152.137-95.086-10.24 0-35.109 7.314-55.589 14.629zM512 554.789c11.703 0 33.646-4.389 48.274-11.703 20.48-8.777 24.869-2.926 24.869 32.183 0 23.406 7.314 49.737 16.091 58.514 23.406 23.406 4.389 62.903-29.257 62.903-16.091 0-32.183 13.166-38.034 29.257-4.389 16.091-14.629 29.257-21.943 29.257s-20.48-13.166-29.257-29.257c-8.777-16.091-23.406-29.257-33.646-29.257s-27.794-5.851-39.497-14.629c-17.554-10.24-17.554-17.554 5.851-42.423 14.629-14.629 24.869-40.96 23.406-55.589-5.851-45.349-1.463-51.2 26.331-40.96 13.166 7.314 35.109 11.703 46.811 11.703z" />
<glyph unicode="&#xe932;" d="M478.354 622.080c-2.926 13.166 1.463 30.72 11.703 39.497 21.943 21.943 64.366-8.777 52.663-38.034-11.703-30.72-55.589-30.72-64.366-1.463z" />
<glyph unicode="&#xe933;" d="M209.189 579.657c-39.497 16.091-74.606 67.291-86.309 128.731-8.777 42.423-5.851 46.811 27.794 46.811 32.183 0 40.96-8.777 54.126-62.903 8.777-33.646 21.943-76.069 29.257-95.086 7.314-17.554 13.166-32.183 10.24-30.72-1.463 0-17.554 5.851-35.109 13.166z" />
<glyph unicode="&#xe934;" d="M746.057 569.417c0 1.463 13.166 42.423 27.794 90.697 23.406 76.069 32.183 87.771 67.291 92.16 38.034 4.389 39.497 2.926 29.257-43.886-11.703-61.44-49.737-115.566-92.16-130.194-17.554-7.314-32.183-10.24-32.183-8.777z" />
<glyph unicode="&#xe935;" d="M0 448v512h1024v-1024h-1024v512z" />
<glyph unicode="&#xe936;" d="M0 448v512h1024v-1024h-1024v512zM640.731 146.651c57.051 38.034 108.251 74.606 114.103 84.846 5.851 8.777-8.777 2.926-32.183-14.629-23.406-16.091-78.994-52.663-125.806-81.92l-81.92-54.126-122.88 80.457c-143.36 95.086-155.063 105.326-200.411 162.377l-33.646 43.886 215.040 14.629 2.926 190.171-17.554-175.543h-204.8l-4.389 77.531c-4.389 71.68 0 81.92 45.349 127.269 43.886 43.886 61.44 51.2 118.491 51.2 59.977 0 67.291-4.389 68.754-33.646 1.463-23.406 2.926-26.331 8.777-7.314 7.314 32.183 33.646 35.109 33.646 4.389 0-11.703 8.777-17.554 20.48-13.166s30.72-7.314 43.886-24.869c21.943-32.183 23.406-32.183 42.423-7.314 11.703 16.091 27.794 23.406 36.571 17.554 10.24-5.851 17.554-2.926 17.554 7.314 0 52.663 138.971 76.069 216.503 36.571 61.44-32.183 96.549-115.566 81.92-193.097l-8.777-49.737h-87.771c-78.994 0-90.697-4.389-119.954-39.497l-30.72-40.96-17.554 263.314v-143.36c0-77.531 4.389-141.897 8.777-141.897 5.851 0 24.869 19.017 42.423 43.886 29.257 39.497 40.96 43.886 112.64 43.886 77.531 0 92.16-7.314 70.217-38.034-7.314-7.314-1.463-1.463 13.166 11.703 13.166 14.629 42.423 27.794 65.829 27.794 40.96 2.926 40.96 2.926 2.926 8.777-35.109 5.851-38.034 11.703-38.034 81.92 2.926 131.657-70.217 200.411-209.189 200.411-73.143 0-73.143 0-73.143 46.811 0 36.571-4.389 42.423-14.629 26.331-7.314-11.703-14.629-39.497-14.629-59.977s-16.091-52.663-36.571-71.68l-36.571-33.646-36.571 33.646c-20.48 19.017-36.571 45.349-38.034 57.051 0 16.091-2.926 17.554-8.777 4.389-13.166-32.183-33.646-19.017-33.646 21.943 0 32.183 2.926 36.571 14.629 19.017 10.24-14.629 11.703 2.926 5.851 58.514-5.851 43.886-11.703 81.92-13.166 84.846-2.926 2.926-8.777-38.034-14.629-90.697l-10.24-96.549h-61.44c-117.029-1.463-184.32-74.606-184.32-200.411 0-71.68-2.926-76.069-39.497-81.92-39.497-5.851-39.497-5.851 4.389-8.777 36.571-1.463 54.126-14.629 84.846-59.977 39.497-61.44 307.2-251.611 339.383-241.371 7.314 1.463 61.44 35.109 119.954 71.68zM520.777 307.566c-2.926 8.777-7.314 2.926-7.314-13.166-1.463-24.869-4.389-24.869-16.091-7.314s-14.629 17.554-14.629-7.314c0-16.091 4.389-45.349 10.24-65.829 8.777-33.646 11.703-32.183 21.943 20.48 7.314 32.183 8.777 64.366 5.851 73.143zM468.114 453.851c-11.703 70.217-21.943 122.88-26.331 119.954-2.926-4.389 1.463-62.903 13.166-131.657 10.24-70.217 20.48-122.88 24.869-119.954 2.926 4.389-1.463 62.903-11.703 131.657zM567.589 543.086c0 16.091-8.777-13.166-20.48-65.829-10.24-52.663-19.017-108.251-17.554-124.343 0-16.091 8.777 13.166 20.48 65.829 10.24 52.663 19.017 108.251 17.554 124.343z" />
<glyph unicode="&#xe937;" d="M0 448v512h1024v-1024h-1024v512zM633.417 140.8c61.44 39.497 115.566 80.457 119.954 89.234 5.851 8.777-46.811-21.943-115.566-65.829l-125.806-81.92-122.88 80.457c-67.291 43.886-147.749 108.251-178.469 141.897l-57.051 62.903 219.429 14.629 10.24 122.88c10.24 115.566 17.554 146.286 33.646 131.657 2.926-4.389 20.48-96.549 36.571-204.8 43.886-279.406 48.274-283.794 86.309-78.994 17.554 96.549 36.571 198.949 40.96 226.743l10.24 51.2 10.24-43.886c5.851-24.869 10.24-100.937 11.703-172.617 0-70.217 7.314-127.269 14.629-127.269s27.794 19.017 45.349 43.886c27.794 39.497 39.497 43.886 111.177 43.886 84.846 0 92.16-5.851 54.126-46.811-13.166-14.629-17.554-26.331-8.777-26.331 7.314 0 23.406 16.091 33.646 36.571 14.629 26.331 32.183 36.571 64.366 38.034 42.423 1.463 42.423 2.926 10.24 11.703s-36.571 17.554-36.571 83.383c-2.926 127.269-83.383 201.874-216.503 198.949l-68.754-1.463-4.389 54.126-5.851 54.126-13.166-64.366c-5.851-35.109-26.331-80.457-43.886-100.937l-33.646-39.497-39.497 39.497c-30.72 30.72-42.423 62.903-55.589 146.286-13.166 80.457-19.017 98.011-26.331 70.217-5.851-20.48-10.24-64.366-11.703-96.549-1.463-59.977-1.463-59.977-57.051-59.977-121.417 0-193.097-77.531-193.097-207.726 0-68.754-2.926-73.143-39.497-78.994-39.497-5.851-39.497-5.851 5.851-8.777 35.109-1.463 52.663-13.166 74.606-51.2 16.091-27.794 58.514-70.217 93.623-96.549 81.92-59.977 235.52-159.451 247.223-160.914 4.389 0 58.514 32.183 119.954 73.143z" />
<glyph unicode="&#xe938;" d="M491.52 316.343c-27.794 147.749-46.811 292.571-36.571 292.571 5.851 0 21.943-14.629 33.646-32.183 23.406-32.183 23.406-32.183 43.886-4.389 11.703 16.091 24.869 26.331 27.794 21.943 5.851-5.851-39.497-275.017-54.126-314.514-2.926-8.777-8.777 8.777-14.629 36.571z" />
<glyph unicode="&#xe939;" d="M626.103 462.629c-1.463 71.68-2.926 143.36-2.926 156.526-1.463 21.943 13.166 27.794 73.143 30.72 62.903 2.926 81.92-1.463 119.954-33.646 55.589-46.811 83.383-133.12 61.44-188.709-13.166-35.109-20.48-38.034-100.937-38.034-73.143 0-90.697-4.389-103.863-29.257-30.72-57.051-43.886-27.794-46.811 102.4z" />
<glyph unicode="&#xe93a;" d="M156.526 399.726c-5.851 4.389-10.24 42.423-10.24 81.92 0 61.44 7.314 78.994 49.737 121.417s59.977 49.737 115.566 49.737h65.829l-7.314-114.103c-2.926-61.44-8.777-121.417-13.166-131.657-5.851-19.017-182.857-26.331-200.411-7.314z" />
<glyph unicode="&#xe93b;" d="M394.971 696.686c0 16.091 2.926 29.257 5.851 29.257s8.777-13.166 13.166-29.257c4.389-16.091 1.463-29.257-5.851-29.257s-13.166 13.166-13.166 29.257z" />
<glyph unicode="&#xe93c;" d="M0 448v512h1024v-1024h-1024v512zM650.971 149.577c68.754 45.349 124.343 87.771 124.343 93.623s-58.514-26.331-130.194-74.606l-130.194-84.846-131.657 86.309c-71.68 46.811-152.137 111.177-177.006 141.897l-45.349 55.589 219.429 8.777v54.126c0 86.309 17.554 207.726 29.257 207.726 5.851 0 26.331-96.549 43.886-216.503 19.017-118.491 38.034-220.891 43.886-226.743 5.851-7.314 30.72 87.771 52.663 212.114 40.96 213.577 42.423 220.891 52.663 150.674 4.389-40.96 10.24-117.029 10.24-172.617 1.463-54.126 7.314-98.011 14.629-98.011s27.794 19.017 45.349 43.886c27.794 39.497 39.497 43.886 112.64 43.886h80.457l-24.869-38.034c-13.166-20.48-20.48-40.96-16.091-45.349s19.017 11.703 33.646 38.034c20.48 36.571 36.571 45.349 74.606 45.349 29.257 0 45.349 5.851 39.497 14.629-4.389 7.314-23.406 14.629-40.96 14.629-29.257 0-32.183 5.851-27.794 54.126 5.851 67.291-32.183 143.36-89.234 185.783-29.257 21.943-61.44 29.257-119.954 29.257l-80.457-1.463v52.663c0 39.497-4.389 46.811-14.629 30.72-7.314-11.703-14.629-39.497-14.629-61.44s-14.629-57.051-33.646-78.994l-33.646-39.497-39.497 36.571c-29.257 27.794-42.423 59.977-55.589 140.434-10.24 58.514-23.406 105.326-29.257 105.326-7.314 0-13.166-42.423-13.166-95.086 0-93.623 0-95.086-35.109-86.309-21.943 4.389-61.44-2.926-100.937-20.48-78.994-35.109-117.029-98.011-117.029-190.171 0-54.126-4.389-61.44-33.646-61.44-54.126 0-57.051-29.257-2.926-30.72 39.497 0 55.589-11.703 92.16-61.44 38.034-54.126 298.423-244.297 333.531-244.297 5.851 0 65.829 36.571 134.583 81.92z" />
<glyph unicode="&#xe93d;" d="M498.834 287.086c-1.463 4.389-11.703 62.903-23.406 131.657s-21.943 140.434-21.943 160.914l1.463 36.571 29.257-36.571c27.794-33.646 32.183-33.646 49.737-10.24 10.24 13.166 20.48 24.869 24.869 24.869s-4.389-64.366-19.017-141.897c-24.869-131.657-38.034-184.32-40.96-165.303z" />
<glyph unicode="&#xe93e;" d="M629.029 477.257c0 80.457-1.463 150.674-2.926 156.526-2.926 7.314 30.72 13.166 73.143 16.091 71.68 4.389 81.92 0 127.269-45.349s51.2-59.977 51.2-125.806v-74.606h-87.771c-76.069 0-89.234-4.389-111.177-36.571-13.166-20.48-29.257-36.571-36.571-36.571s-13.166 65.829-13.166 146.286z" />
<glyph unicode="&#xe93f;" d="M149.211 486.034c8.777 109.714 52.663 153.6 159.451 163.84 67.291 5.851 76.069 4.389 67.291-17.554-5.851-14.629-10.24-71.68-10.24-127.269v-100.937h-222.354l5.851 81.92z" />
<glyph unicode="&#xe940;" d="M394.971 689.371c0 11.703 2.926 21.943 5.851 21.943s8.777-10.24 14.629-21.943c4.389-11.703 1.463-21.943-5.851-21.943-8.777 0-14.629 10.24-14.629 21.943z" />
<glyph unicode="&#xe941;" d="M0 448v512h1024v-1024h-1024v512zM646.583 145.189c114.103 74.606 231.131 182.857 231.131 215.040 0 8.777 23.406 14.629 51.2 14.629s51.2 5.851 51.2 14.629c0 7.314-17.554 14.629-40.96 14.629-38.034 0-39.497 2.926-35.109 61.44 10.24 121.417-103.863 225.28-226.743 210.651l-62.903-8.777v52.663c0 67.291-23.406 52.663-33.646-21.943-2.926-30.72-20.48-70.217-35.109-84.846-29.257-29.257-29.257-29.257-65.829 2.926-29.257 24.869-40.96 55.589-55.589 137.509-8.777 57.051-23.406 103.863-30.72 103.863s-13.166-39.497-13.166-87.771v-87.771h-46.811c-117.029 0-206.263-87.771-207.726-204.8-1.463-70.217-2.926-73.143-40.96-73.143-23.406 0-40.96-7.314-40.96-14.629 0-8.777 21.943-14.629 48.274-14.629 36.571 0 52.663-8.777 64.366-33.646 27.794-58.514 295.497-267.703 351.086-272.091 10.24-1.463 73.143 33.646 138.971 76.069z" />
<glyph unicode="&#xe942;" d="M384.731 170.057c-119.954 77.531-209.189 159.451-209.189 191.634 0 7.314 45.349 13.166 100.937 13.166h100.937l10.24 131.657c5.851 73.143 14.629 131.657 20.48 131.657s26.331-102.4 46.811-226.743c19.017-124.343 39.497-226.743 45.349-226.743 4.389 0 16.091 35.109 24.869 76.069 14.629 67.291 55.589 296.96 61.44 340.846 4.389 32.183 24.869-152.137 26.331-238.446 1.463-49.737 5.851-90.697 13.166-90.697 5.851 0 26.331 23.406 45.349 51.2 32.183 48.274 39.497 51.2 114.103 51.2 71.68 0 77.531-2.926 64.366-26.331-21.943-40.96-128.731-130.194-238.446-200.411l-96.549-61.44-130.194 83.383z" />
<glyph unicode="&#xe943;" d="M484.206 377.783c-8.777 51.2-19.017 124.343-24.869 165.303l-8.777 73.143 29.257-36.571c24.869-29.257 32.183-32.183 52.663-16.091 19.017 16.091 23.406 16.091 23.406 1.463 0-24.869-45.349-269.166-51.2-275.017-1.463-2.926-11.703 36.571-20.48 87.771z" />
<glyph unicode="&#xe944;" d="M631.954 487.497l4.389 157.989h78.994c68.754-1.463 83.383-7.314 119.954-48.274 35.109-38.034 42.423-59.977 42.423-119.954v-73.143h-86.309c-76.069 0-90.697-4.389-115.566-36.571-16.091-20.48-33.646-36.571-38.034-36.571-5.851 0-7.314 70.217-5.851 156.526z" />
<glyph unicode="&#xe945;" d="M146.286 462.629c0 112.64 71.68 190.171 175.543 190.171h45.349l-4.389-121.417-4.389-119.954-212.114-8.777v59.977z" />
<glyph unicode="&#xe946;" d="M396.434 690.834c0 16.091 4.389 20.48 8.777 8.777 4.389-10.24 2.926-23.406-1.463-27.794-4.389-5.851-8.777 2.926-7.314 19.017z" />
<glyph unicode="&#xe947;" d="M0 448v512h1024v-1024h-1024v512zM648.046 145.189c65.829 42.423 150.674 112.64 188.709 153.6 48.274 54.126 77.531 76.069 105.326 76.069 20.48 0 38.034 5.851 38.034 14.629 0 7.314-17.554 14.629-39.497 14.629-39.497 0-40.96 2.926-40.96 78.994 0 68.754-5.851 86.309-42.423 124.343-49.737 51.2-119.954 78.994-187.246 71.68-45.349-4.389-48.274-1.463-57.051 46.811-8.777 52.663-17.554 43.886-35.109-35.109-4.389-23.406-20.48-58.514-35.109-76.069l-26.331-33.646-38.034 39.497c-19.017 21.943-39.497 58.514-43.886 83.383-4.389 23.406-11.703 68.754-17.554 99.474-13.166 83.383-36.571 64.366-36.571-32.183v-84.846l-67.291-8.777c-119.954-13.166-204.8-109.714-190.171-219.429 5.851-51.2 4.389-54.126-36.571-54.126-23.406 0-42.423-7.314-42.423-14.629 0-8.777 21.943-14.629 49.737-14.629 36.571 0 52.663-7.314 58.514-26.331 5.851-14.629 35.109-51.2 65.829-81.92 61.44-59.977 260.389-196.023 291.109-197.486 10.24-1.463 71.68 33.646 138.971 76.069z" />
<glyph unicode="&#xe948;" d="M402.286 159.817c-106.789 64.366-226.743 168.229-226.743 197.486 0 11.703 33.646 17.554 100.937 17.554h99.474l10.24 76.069c4.389 42.423 8.777 102.4 8.777 131.657 0 119.954 26.331 43.886 58.514-171.154 45.349-299.886 49.737-299.886 103.863 7.314l35.109 197.486 13.166-172.617c7.314-93.623 16.091-171.154 21.943-171.154 4.389 0 24.869 23.406 45.349 51.2 33.646 46.811 42.423 49.737 115.566 51.2 86.309 0 84.846 1.463 8.777-86.309-29.257-35.109-261.851-191.634-282.331-191.634-5.851 1.463-55.589 29.257-112.64 62.903z" />
<glyph unicode="&#xe949;" d="M485.669 374.857c-8.777 52.663-20.48 127.269-24.869 168.229l-8.777 73.143 32.183-40.96c29.257-38.034 32.183-39.497 51.2-14.629 26.331 35.109 24.869 16.091-7.314-149.211l-24.869-131.657-17.554 95.086z" />
<glyph unicode="&#xe94a;" d="M636.343 392.411c-4.389 35.109-7.314 105.326-4.389 157.989l4.389 95.086 58.514 4.389c70.217 4.389 147.749-38.034 168.229-93.623 8.777-20.48 14.629-62.903 14.629-95.086v-57.051h-86.309c-76.069 0-90.697-4.389-117.029-36.571l-29.257-38.034-8.777 62.903z" />
<glyph unicode="&#xe94b;" d="M156.526 414.354c-17.554 17.554-10.24 106.789 11.703 150.674 26.331 51.2 90.697 87.771 153.6 87.771h43.886v-92.16c0-152.137-2.926-156.526-108.251-156.526-51.2 0-96.549 4.389-100.937 10.24z" />
<glyph unicode="&#xe94c;" d="M394.971 682.057c0 10.24 4.389 14.629 10.24 10.24 4.389-5.851 4.389-14.629 0-20.48-5.851-4.389-10.24 0-10.24 10.24z" />
<glyph unicode="&#xe94d;" d="M0 448v512h1024v-1024h-1024v512zM827.977 290.011c55.589 61.44 87.771 84.846 114.103 84.846 21.943 0 38.034 5.851 38.034 14.629 0 7.314-16.091 14.629-36.571 14.629-33.646 0-36.571 5.851-36.571 67.291 0 127.269-98.011 219.429-220.891 207.726-45.349-4.389-57.051 0-57.051 19.017 0 35.109-14.629 71.68-29.257 71.68-5.851 0-16.091-29.257-20.48-64.366-5.851-35.109-23.406-76.069-39.497-89.234-26.331-26.331-29.257-24.869-64.366 7.314-24.869 23.406-38.034 55.589-45.349 115.566-19.017 159.451-45.349 171.154-52.663 23.406l-4.389-73.143-59.977-7.314c-119.954-16.091-200.411-106.789-193.097-216.503 4.389-58.514 2.926-61.44-35.109-61.44-23.406 0-40.96-7.314-40.96-14.629 0-8.777 19.017-14.629 43.886-14.629 35.109 0 51.2-11.703 83.383-59.977 26.331-39.497 89.234-92.16 191.634-159.451l152.137-99.474 117.029 74.606c64.366 42.423 152.137 114.103 196.023 159.451z" />
<glyph unicode="&#xe94e;" d="M370.103 184.686c-115.566 76.069-194.56 149.211-194.56 181.394 0 4.389 45.349 8.777 100.937 8.777h100.937l8.777 45.349c4.389 24.869 8.777 86.309 8.777 134.583 0 140.434 21.943 81.92 58.514-155.063 17.554-118.491 38.034-219.429 45.349-223.817 14.629-8.777 16.091-1.463 61.44 242.834l33.646 182.857 11.703-160.914c5.851-87.771 13.166-162.377 17.554-166.766 2.926-4.389 26.331 17.554 51.2 46.811 39.497 46.811 52.663 54.126 109.714 54.126 35.109 0 64.366-5.851 64.366-14.629 0-30.72-98.011-121.417-193.097-178.469-54.126-32.183-103.863-64.366-108.251-71.68-14.629-24.869-42.423-13.166-177.006 74.606z" />
<glyph unicode="&#xe94f;" d="M484.206 404.114c-10.24 59.977-20.48 128.731-24.869 153.6l-7.314 43.886 30.72-35.109c29.257-33.646 30.72-33.646 52.663-7.314 19.017 24.869 20.48 23.406 11.703-30.72-5.851-32.183-17.554-98.011-27.794-146.286l-17.554-87.771-17.554 109.714z" />
<glyph unicode="&#xe950;" d="M639.269 421.669c-5.851 42.423-10.24 108.251-10.24 146.286 0 62.903 4.389 70.217 38.034 78.994 20.48 5.851 64.366 1.463 95.086-7.314 73.143-21.943 115.566-86.309 115.566-174.080v-61.44h-83.383c-62.903 0-90.697-7.314-114.103-29.257l-32.183-30.72-8.777 77.531z" />
<glyph unicode="&#xe951;" d="M155.063 427.52c-38.034 100.937 57.051 225.28 172.617 225.28 35.109 0 38.034-4.389 38.034-70.217 0-38.034-4.389-93.623-8.777-124.343l-10.24-54.126h-90.697c-70.217 0-93.623 5.851-100.937 23.406z" />
<glyph unicode="&#xe952;" d="M0 448v512h1024v-1024h-1024v512zM620.251 121.783c124.343 81.92 210.651 156.526 247.223 212.114 20.48 29.257 39.497 40.96 70.217 40.96 23.406 0 42.423 5.851 42.423 14.629 0 7.314-16.091 14.629-36.571 14.629-33.646 0-36.571 5.851-36.571 68.754 0 130.194-95.086 217.966-220.891 206.263-52.663-4.389-55.589-2.926-59.977 38.034-7.314 68.754-36.571 61.44-46.811-10.24-5.851-36.571-23.406-77.531-39.497-90.697-26.331-26.331-29.257-24.869-62.903 5.851-24.869 23.406-36.571 55.589-43.886 119.954-5.851 48.274-14.629 98.011-19.017 109.714-13.166 35.109-33.646 5.851-33.646-49.737 0-96.549-13.166-119.954-64.366-119.954-112.64 0-204.8-100.937-196.023-216.503 4.389-58.514 2.926-61.44-35.109-61.44-23.406 0-40.96-7.314-40.96-14.629 0-8.777 19.017-14.629 40.96-14.629 32.183 0 51.2-14.629 87.771-65.829 30.72-43.886 95.086-98.011 188.709-159.451 78.994-52.663 146.286-95.086 149.211-95.086 2.926-1.463 51.2 29.257 109.714 67.291z" />
<glyph unicode="&#xe953;" d="M402.286 164.206c-108.251 67.291-226.743 169.691-226.743 196.023 0 8.777 40.96 14.629 100.937 14.629 118.491 0 118.491 0 118.491 147.749 0 55.589 4.389 100.937 11.703 100.937 5.851 0 24.869-96.549 43.886-215.040 30.72-201.874 51.2-272.091 67.291-222.354 4.389 11.703 21.943 105.326 40.96 210.651l33.646 190.171 10.24-152.137c5.851-81.92 14.629-155.063 19.017-160.914 5.851-4.389 29.257 16.091 54.126 45.349 38.034 49.737 51.2 55.589 108.251 55.589 35.109 0 64.366-5.851 64.366-13.166 0-32.183-83.383-108.251-203.337-182.857-70.217-45.349-131.657-81.92-134.583-80.457-2.926 0-51.2 30.72-108.251 65.829z" />
<glyph unicode="&#xe954;" d="M484.206 418.743c-10.24 68.754-21.943 137.509-24.869 153.6-5.851 26.331-2.926 24.869 23.406-7.314 30.72-35.109 32.183-35.109 52.663-7.314 24.869 33.646 24.869 32.183-7.314-131.657l-26.331-131.657-17.554 124.343z" />
<glyph unicode="&#xe955;" d="M636.343 483.109c-8.777 114.103-5.851 146.286 8.777 157.989 27.794 17.554 124.343 1.463 168.229-26.331 38.034-26.331 70.217-111.177 61.44-166.766-4.389-33.646-11.703-36.571-90.697-40.96-67.291-2.926-92.16-11.703-111.177-35.109-24.869-30.72-26.331-27.794-36.571 111.177z" />
<glyph unicode="&#xe956;" d="M155.063 440.686c-11.703 46.811 2.926 108.251 33.646 144.823 27.794 32.183 103.863 67.291 147.749 67.291 32.183 0 36.571-32.183 20.48-172.617l-10.24-76.069h-90.697c-86.309 0-92.16 2.926-100.937 36.571z" />
<glyph unicode="&#xe957;" d="M0 448v512h1024v-1024h-1024v512zM661.211 145.189c68.754 45.349 150.674 111.177 181.394 147.749s67.291 67.291 80.457 67.291c39.497 0 71.68 16.091 62.903 30.72-4.389 7.314-23.406 13.166-42.423 13.166-30.72 0-33.646 5.851-33.646 62.903 2.926 127.269-83.383 215.040-210.651 215.040-65.829 0-68.754 1.463-73.143 48.274-5.851 68.754-30.72 57.051-48.274-23.406-35.109-160.914-112.64-134.583-143.36 48.274-26.331 155.063-68.754 147.749-68.754-11.703 0-61.44 0-61.44-54.126-61.44-114.103 0-194.56-87.771-194.56-212.114 0-61.44-2.926-65.829-38.034-65.829-54.126 0-36.571-35.109 20.48-40.96 27.794-2.926 48.274-14.629 54.126-30.72 4.389-14.629 26.331-43.886 49.737-65.829 59.977-57.051 298.423-213.577 315.977-207.726 8.777 2.926 73.143 42.423 141.897 86.309z" />
<glyph unicode="&#xe958;" d="M397.897 170.057c-109.714 71.68-185.783 136.046-207.726 175.543-10.24 19.017 1.463 20.48 74.606 17.554 119.954-7.314 130.194 2.926 130.194 147.749 0 65.829 5.851 112.64 11.703 105.326 7.314-8.777 26.331-109.714 43.886-225.28 17.554-117.029 35.109-213.577 38.034-217.966 20.48-19.017 38.034 32.183 68.754 212.114l35.109 201.874 7.314-149.211c4.389-81.92 13.166-153.6 19.017-160.914 7.314-5.851 30.72 8.777 51.2 33.646 32.183 38.034 52.663 46.811 109.714 51.2 38.034 2.926 68.754 1.463 68.754-4.389 0-26.331-117.029-125.806-219.429-187.246-59.977-36.571-112.64-67.291-117.029-68.754s-55.589 29.257-114.103 68.754z" />
<glyph unicode="&#xe959;" d="M498.834 338.286c-1.463 16.091-11.703 80.457-21.943 144.823-17.554 109.714-17.554 112.64 7.314 80.457 20.48-27.794 29.257-30.72 46.811-16.091 19.017 16.091 19.017 7.314 2.926-73.143-10.24-51.2-21.943-108.251-26.331-128.731-4.389-27.794-7.314-30.72-8.777-7.314z" />
<glyph unicode="&#xe95a;" d="M643.657 411.429c0 39.497-4.389 106.789-8.777 147.749-8.777 73.143-8.777 74.606 30.72 81.92 93.623 19.017 185.783-40.96 204.8-130.194 17.554-87.771 1.463-106.789-93.623-106.789-71.68 0-89.234-5.851-108.251-33.646-21.943-30.72-23.406-29.257-24.869 40.96z" />
<glyph unicode="&#xe95b;" d="M160.914 475.794c0 86.309 38.034 140.434 111.177 160.914 80.457 21.943 98.011 8.777 87.771-68.754-4.389-36.571-8.777-87.771-8.777-114.103v-49.737h-190.171v71.68z" />
<glyph unicode="&#xe95c;" d="M0 448v512h1024v-1024h-1024v512z" />
<glyph unicode="&#xe95d;" d="M0 448v512h1024v-1024h-1024v512zM741.669 105.691c-4.389 4.389-17.554 5.851-27.794 1.463-11.703-4.389-7.314-8.777 8.777-8.777 16.091-1.463 24.869 2.926 19.017 7.314zM620.251 127.634c-46.811 11.703-121.417 64.366-318.903 228.206-141.897 117.029-257.463 220.891-257.463 232.594 0 46.811 36.571 27.794 165.303-81.92 203.337-175.543 356.937-286.72 419.84-305.737 58.514-17.554 232.594-19.017 289.646-4.389 19.017 5.851-36.571 10.24-124.343 10.24-188.709 0-200.411 4.389-413.989 175.543-99.474 77.531-146.286 125.806-146.286 146.286 0 21.943-2.926 24.869-13.166 8.777s-26.331-7.314-76.069 39.497l-64.366 58.514 35.109 38.034c19.017 20.48 40.96 33.646 46.811 29.257 7.314-4.389 21.943-38.034 33.646-76.069s21.943-55.589 21.943-39.497c1.463 17.554-11.703 55.589-27.794 87.771-19.017 36.571-24.869 61.44-14.629 71.68 17.554 17.554 10.24 26.331 89.234-114.103 76.069-137.509 223.817-292.571 329.143-345.234 58.514-29.257 99.474-36.571 219.429-40.96l149.211-5.851 16.091-46.811c14.629-43.886 14.629-43.886 7.314 13.166-10.24 67.291-29.257 95.086-62.903 93.623-19.017-1.463-19.017-2.926 2.926-8.777 13.166-2.926 24.869-13.166 24.869-21.943 0-10.24-49.737-13.166-141.897-8.777-124.343 4.389-153.6 11.703-220.891 48.274-102.4 55.589-242.834 207.726-323.291 349.623-62.903 109.714-64.366 115.566-38.034 134.583 33.646 24.869 39.497 19.017 71.68-70.217 21.943-61.44 93.623-143.36 124.343-143.36 7.314 0 32.183-32.183 57.051-71.68 23.406-39.497 61.44-83.383 83.383-98.011 48.274-32.183 267.703-108.251 307.2-106.789 16.091 0-2.926 8.777-43.886 20.48-83.383 21.943-153.6 90.697-232.594 226.743-51.2 87.771-83.383 103.863-127.269 64.366-24.869-21.943-32.183-23.406-64.366-5.851-42.423 21.943-87.771 89.234-102.4 149.211-21.943 84.846-43.886 80.457-160.914-33.646-77.531-74.606-109.714-115.566-106.789-136.046 4.389-33.646 457.874-421.303 531.017-454.949 24.869-11.703 59.977-20.48 80.457-20.48 24.869 1.463 16.091 5.851-23.406 14.629zM845.531 121.783c-14.629 2.926-38.034 2.926-51.2 0-14.629-4.389-2.926-7.314 24.869-7.314s39.497 2.926 26.331 7.314z" />
<glyph unicode="&#xe95e;" d="M636.343 388.023c-62.903 29.257-111.177 70.217-147.749 127.269-27.794 42.423-27.794 42.423 30.72 54.126 36.571 7.314 46.811 1.463 61.44-27.794 11.703-26.331 11.703-35.109 0-36.571-10.24 0-1.463-7.314 19.017-14.629 29.257-11.703 32.183-17.554 14.629-27.794-19.017-11.703-19.017-14.629 1.463-14.629 23.406 0 96.549-68.754 84.846-78.994-2.926-4.389-32.183 4.389-64.366 19.017z" />
<glyph unicode="&#xe95f;" d="M471.040 597.211c7.314 21.943 70.217 26.331 70.217 4.389 0-8.777-16.091-16.091-38.034-19.017-26.331-4.389-36.571 0-32.183 14.629z" />
<glyph unicode="&#xe960;" d="M0 448v512h1024v-1024h-1024v512zM811.886 110.080c48.274 10.24 36.571 13.166-73.143 14.629-81.92 1.463-146.286 8.777-171.154 21.943-36.571 19.017-415.451 329.143-490.057 402.286-19.017 17.554-33.646 38.034-33.646 45.349 0 30.72 30.72 26.331 68.754-8.777 74.606-70.217 419.84-343.771 465.189-368.64 35.109-19.017 81.92-24.869 223.817-24.869 130.194 1.463 178.469-2.926 178.469-16.091 0-10.24-10.24-21.943-21.943-24.869-16.091-4.389-14.629-5.851 2.926-4.389 20.48 1.463 26.331 14.629 24.869 57.051-2.926 74.606-24.869 95.086-124.343 114.103-112.64 21.943-146.286 49.737-241.371 198.949-81.92 125.806-112.64 144.823-157.989 99.474-11.703-11.703-27.794-21.943-35.109-21.943-29.257 0-118.491 117.029-127.269 166.766-5.851 27.794-20.48 54.126-32.183 58.514-32.183 13.166-241.371-193.097-235.52-231.131 4.389-26.331 128.731-138.971 411.063-371.566 131.657-106.789 229.669-134.583 368.64-106.789zM902.583 136.411c-5.851 4.389-14.629 4.389-20.48 0-4.389-5.851 0-10.24 10.24-10.24s14.629 4.389 10.24 10.24z" />
<glyph unicode="&#xe961;" d="M592.457 234.423c-39.497 20.48-136.046 87.771-212.114 149.211-131.657 105.326-140.434 114.103-155.063 185.783-8.777 42.423-24.869 93.623-35.109 117.029-17.554 36.571-16.091 43.886 14.629 76.069 46.811 51.2 65.829 45.349 86.309-21.943 19.017-62.903 77.531-140.434 115.566-152.137 13.166-4.389 43.886-38.034 67.291-74.606 21.943-36.571 61.44-81.92 87.771-100.937 45.349-33.646 232.594-100.937 334.994-118.491 29.257-5.851 54.126-17.554 54.126-24.869 0-10.24-52.663-13.166-141.897-8.777-124.343 4.389-153.6 11.703-220.891 48.274-105.326 57.051-247.223 210.651-314.514 340.846-32.183 59.977-59.977 103.863-64.366 100.937-11.703-11.703 61.44-143.36 133.12-239.909 78.994-108.251 209.189-215.040 299.886-245.76 39.497-13.166 117.029-21.943 197.486-21.943 102.4 0 127.269-4.389 114.103-17.554-10.24-10.24-74.606-20.48-153.6-23.406-121.417-4.389-141.897-1.463-207.726 32.183z" />
<glyph unicode="&#xe962;" d="M605.623 402.651c-42.423 26.331-137.509 128.731-137.509 149.211 0 11.703 84.846 26.331 95.086 16.091 4.389-4.389-1.463-17.554-11.703-29.257-14.629-19.017-13.166-21.943 7.314-13.166 29.257 10.24 51.2-13.166 23.406-23.406-11.703-4.389-7.314-8.777 8.777-8.777 17.554-1.463 23.406-8.777 17.554-23.406-4.389-13.166 0-21.943 11.703-21.943 10.24 0 33.646-16.091 52.663-36.571 32.183-33.646 32.183-36.571 5.851-36.571-14.629 0-48.274 13.166-73.143 27.794z" />
<glyph unicode="&#xe963;" d="M134.583 585.509l-54.126 51.2 38.034 39.497c38.034 38.034 39.497 38.034 55.589 10.24 23.406-45.349 43.886-150.674 29.257-150.674-7.314 0-38.034 23.406-68.754 49.737z" />
<glyph unicode="&#xe964;" d="M471.040 597.211c4.389 10.24 21.943 21.943 39.497 23.406 23.406 4.389 32.183-1.463 27.794-14.629-4.389-10.24-21.943-21.943-39.497-23.406-23.406-4.389-32.183 1.463-27.794 14.629z" />
<glyph unicode="&#xe965;" d="M0 448v512h1024v-1024h-1024v512zM893.806 124.709c21.943 7.314-21.943 8.777-111.177 4.389-112.64-4.389-159.451-1.463-200.411 16.091-51.2 21.943-452.023 346.697-514.926 418.377-19.017 21.943-23.406 36.571-13.166 46.811s29.257 0 61.44-29.257c114.103-106.789 422.766-345.234 481.28-370.103 58.514-26.331 152.137-32.183 330.606-21.943 46.811 2.926 68.754-27.794 27.794-38.034-19.017-5.851-17.554-7.314 8.777-8.777 32.183-1.463 33.646 2.926 26.331 57.051-10.24 80.457-29.257 98.011-118.491 117.029-114.103 23.406-157.989 58.514-248.686 196.023-86.309 130.194-115.566 149.211-160.914 103.863-17.554-17.554-29.257-19.017-51.2-8.777-46.811 24.869-99.474 99.474-109.714 152.137-16.091 87.771-46.811 80.457-165.303-36.571-58.514-58.514-106.789-117.029-106.789-128.731 0-27.794 58.514-84.846 285.257-273.554 203.337-168.229 239.909-194.56 304.274-210.651 52.663-13.166 223.817-4.389 275.017 14.629z" />
<glyph unicode="&#xe966;" d="M624.64 219.794c-52.663 19.017-114.103 62.903-311.589 219.429-64.366 51.2-77.531 68.754-86.309 125.806-5.851 36.571-20.48 84.846-32.183 106.789-11.703 23.406-17.554 52.663-11.703 65.829 7.314 17.554 26.331-8.777 70.217-92.16 42.423-81.92 93.623-150.674 171.154-228.206 140.434-141.897 222.354-175.543 415.451-175.543 171.154 0 147.749-29.257-30.72-36.571-89.234-4.389-146.286 0-184.32 14.629z" />
<glyph unicode="&#xe967;" d="M649.509 284.16c-87.771 30.72-169.691 92.16-261.851 197.486-76.069 87.771-174.080 266.24-162.377 296.96 14.629 36.571 48.274 21.943 58.514-26.331 10.24-55.589 73.143-140.434 117.029-159.451 17.554-8.777 49.737-43.886 70.217-77.531 20.48-35.109 61.44-81.92 92.16-103.863 49.737-39.497 90.697-54.126 289.646-106.789 45.349-11.703 83.383-27.794 83.383-33.646 0-23.406-209.189-13.166-286.72 13.166z" />
<glyph unicode="&#xe968;" d="M605.623 402.651c-43.886 26.331-137.509 128.731-137.509 150.674 0 7.314 23.406 11.703 52.663 11.703 45.349 0 51.2-2.926 35.109-21.943-14.629-19.017-13.166-21.943 16.091-21.943 27.794 0 30.72-2.926 13.166-14.629-19.017-11.703-17.554-14.629 5.851-14.629 17.554 0 23.406-7.314 17.554-21.943-4.389-13.166 0-21.943 11.703-21.943 19.017 0 67.291-45.349 67.291-62.903 0-19.017-36.571-10.24-81.92 17.554z" />
<glyph unicode="&#xe969;" d="M137.509 585.509l-57.051 49.737 36.571 38.034 35.109 39.497 21.943-40.96c26.331-49.737 45.349-136.046 32.183-136.046-5.851 0-36.571 21.943-68.754 49.737z" />
<glyph unicode="&#xe96a;" d="M471.040 597.211c7.314 21.943 54.126 26.331 59.977 4.389 1.463-8.777-13.166-17.554-32.183-19.017-23.406-4.389-32.183 1.463-27.794 14.629z" />
<glyph unicode="&#xe96b;" d="M0 448v512h1024v-1024h-1024v512zM889.417 121.783c105.326 24.869 105.326 24.869 105.326 73.143 0 65.829-49.737 114.103-131.657 127.269-98.011 16.091-141.897 49.737-229.669 181.394-96.549 144.823-118.491 159.451-169.691 118.491l-38.034-29.257-45.349 40.96c-24.869 21.943-55.589 73.143-70.217 114.103-14.629 39.497-36.571 74.606-48.274 77.531-27.794 4.389-232.594-196.023-232.594-229.669 0-13.166 27.794-51.2 61.44-83.383 93.623-89.234 409.6-349.623 449.097-371.566 93.623-49.737 196.023-55.589 349.623-19.017z" />
<glyph unicode="&#xe96c;" d="M570.514 151.040c-49.737 26.331-471.040 373.029-509.074 418.377-11.703 13.166-16.091 30.72-11.703 38.034 5.851 8.777 95.086-55.589 200.411-141.897 342.309-280.869 416.914-314.514 608.549-280.869 65.829 10.24 100.937 11.703 111.177 1.463 24.869-24.869-59.977-48.274-209.189-55.589-115.566-5.851-147.749-1.463-190.171 20.48z" />
<glyph unicode="&#xe96d;" d="M620.251 221.257c-33.646 13.166-131.657 80.457-217.966 150.674-156.526 127.269-157.989 127.269-182.857 222.354-13.166 52.663-29.257 106.789-35.109 121.417-7.314 14.629-5.851 24.869 2.926 24.869 7.314 0 32.183-35.109 54.126-77.531 92.16-175.543 234.057-324.754 370.103-387.657 70.217-32.183 103.863-38.034 219.429-38.034 169.691 0 155.063-23.406-20.48-30.72-93.623-5.851-146.286-1.463-190.171 14.629z" />
<glyph unicode="&#xe96e;" d="M672.914 278.309c-149.211 39.497-314.514 203.337-422.766 415.451-33.646 65.829-32.183 105.326 4.389 105.326 11.703 0 24.869-21.943 30.72-54.126 7.314-39.497 35.109-80.457 95.086-143.36 46.811-48.274 114.103-118.491 149.211-155.063 51.2-54.126 83.383-73.143 179.931-105.326 64.366-20.48 141.897-42.423 172.617-46.811 29.257-5.851 54.126-16.091 54.126-23.406 0-19.017-185.783-14.629-263.314 7.314z" />
<glyph unicode="&#xe96f;" d="M621.714 398.263c-57.051 29.257-96.549 65.829-128.731 121.417l-26.331 45.349 55.589-1.463c30.72 0 46.811-4.389 38.034-8.777-26.331-10.24-23.406-33.646 2.926-33.646 13.166 0 17.554-8.777 13.166-21.943-5.851-14.629 0-21.943 17.554-21.943 23.406 0 24.869-2.926 5.851-14.629-17.554-11.703-16.091-14.629 8.777-14.629 17.554 0 42.423-16.091 55.589-36.571 27.794-42.423 19.017-45.349-42.423-13.166z" />
<glyph unicode="&#xe970;" d="M140.434 586.971c-55.589 49.737-55.589 52.663-30.72 80.457 14.629 16.091 32.183 29.257 39.497 29.257 19.017 0 58.514-99.474 52.663-134.583-4.389-24.869-10.24-21.943-61.44 24.869z" />
<glyph unicode="&#xe971;" d="M468.114 592.823c0 17.554 42.423 33.646 61.44 21.943 8.777-5.851 7.314-14.629-4.389-21.943-26.331-16.091-57.051-16.091-57.051 0z" />
<glyph unicode="&#xe972;" d="M0 448v512h1024v-1024h-1024v512zM906.971 123.246c92.16 24.869 95.086 26.331 90.697 68.754-7.314 76.069-46.811 112.64-138.971 131.657-100.937 20.48-162.377 73.143-247.223 215.040-30.72 52.663-68.754 100.937-81.92 106.789-13.166 4.389-40.96-4.389-64.366-21.943l-39.497-29.257-45.349 39.497c-24.869 23.406-55.589 73.143-70.217 114.103-14.629 39.497-36.571 74.606-49.737 77.531-24.869 4.389-168.229-119.954-217.966-188.709-26.331-38.034-27.794-45.349-8.777-71.68 39.497-55.589 506.149-434.469 554.423-449.097 71.68-23.406 212.114-20.48 318.903 7.314z" />
<glyph unicode="&#xe973;" d="M589.531 143.726c-42.423 17.554-484.206 373.029-529.554 425.691-10.24 13.166-14.629 30.72-10.24 38.034 5.851 8.777 77.531-40.96 159.451-109.714 375.954-315.977 441.783-346.697 646.583-315.977 111.177 17.554 160.914 1.463 86.309-26.331-65.829-26.331-296.96-32.183-352.549-11.703z" />
<glyph unicode="&#xe974;" d="M643.657 215.406c-61.44 19.017-99.474 45.349-273.554 185.783-108.251 86.309-136.046 115.566-136.046 146.286-1.463 35.109-17.554 87.771-51.2 168.229-5.851 13.166-4.389 24.869 1.463 24.869 7.314 0 36.571-43.886 64.366-98.011 58.514-114.103 254.537-321.829 339.383-359.863 80.457-38.034 212.114-58.514 304.274-48.274 58.514 5.851 73.143 4.389 55.589-5.851-36.571-21.943-244.297-30.72-304.274-13.166z" />
<glyph unicode="&#xe975;" d="M702.171 270.994c-87.771 19.017-179.931 76.069-270.629 169.691-98.011 100.937-220.891 301.349-206.263 337.92s39.497 17.554 61.44-45.349c11.703-35.109 51.2-89.234 96.549-133.12 42.423-40.96 99.474-102.4 127.269-136.046 59.977-76.069 179.931-133.12 349.623-166.766 40.96-8.777 76.069-20.48 76.069-27.794 0-14.629-160.914-13.166-234.057 1.463z" />
<glyph unicode="&#xe976;" d="M611.474 404.114c-51.2 27.794-128.731 111.177-128.731 140.434 0 8.777 21.943 14.629 48.274 16.091 24.869 1.463 38.034-1.463 29.257-4.389-27.794-11.703-23.406-35.109 7.314-35.109 20.48 0 21.943-2.926 2.926-14.629-17.554-11.703-17.554-14.629 4.389-23.406 13.166-4.389 20.48-14.629 16.091-21.943s5.851-13.166 20.48-13.166c16.091 0 39.497-16.091 52.663-36.571 29.257-43.886 19.017-45.349-52.663-7.314z" />
<glyph unicode="&#xe977;" d="M141.897 588.434c-52.663 51.2-54.126 55.589-30.72 80.457 14.629 16.091 30.72 27.794 38.034 27.794 19.017 0 58.514-99.474 52.663-133.12-4.389-24.869-11.703-21.943-59.977 24.869z" />
<glyph unicode="&#xe978;" d="M475.429 594.286c-10.24 17.554 39.497 32.183 54.126 17.554 8.777-8.777 1.463-17.554-16.091-21.943s-33.646-2.926-38.034 4.389z" />
<glyph unicode="&#xe979;" d="M0 448v512h1024v-1024h-1024v512zM914.286 123.246c48.274 14.629 86.309 29.257 84.846 36.571-2.926 5.851-4.389 29.257-4.389 51.2 0 65.829-29.257 90.697-136.046 114.103-84.846 20.48-105.326 30.72-156.526 89.234-32.183 38.034-78.994 102.4-103.863 144.823-52.663 92.16-89.234 109.714-137.509 64.366l-33.646-30.72-52.663 51.2c-29.257 29.257-55.589 71.68-59.977 93.623-24.869 114.103-58.514 114.103-177.006 0-108.251-102.4-127.269-130.194-114.103-163.84 14.629-39.497 501.76-435.931 558.811-456.411 73.143-26.331 225.28-23.406 332.069 5.851z" />
<glyph unicode="&#xe97a;" d="M596.846 146.651c-29.257 10.24-108.251 64.366-175.543 119.954-332.069 273.554-375.954 314.514-367.177 336.457 5.851 17.554 19.017 11.703 61.44-27.794 103.863-99.474 405.211-333.531 469.577-365.714 68.754-33.646 231.131-43.886 333.531-21.943 35.109 8.777 46.811 5.851 46.811-8.777 0-13.166-32.183-26.331-92.16-36.571-119.954-20.48-209.189-19.017-276.48 4.389z" />
<glyph unicode="&#xe97b;" d="M665.6 212.48c-70.217 17.554-122.88 51.2-280.869 177.006-134.583 105.326-150.674 124.343-150.674 165.303 0 26.331-13.166 76.069-29.257 111.177-32.183 71.68-33.646 74.606-17.554 74.606 5.851 0 32.183-40.96 57.051-92.16 86.309-163.84 236.983-320.366 370.103-381.806 51.2-23.406 96.549-29.257 207.726-30.72 77.531 0 133.12-4.389 122.88-10.24-29.257-16.091-231.131-26.331-279.406-13.166z" />
<glyph unicode="&#xe97c;" d="M706.56 272.457c-114.103 23.406-238.446 112.64-336.457 241.371-86.309 115.566-157.989 254.537-138.971 273.554s46.811 2.926 46.811-27.794c0-40.96 64.366-137.509 111.177-165.303 24.869-16.091 64.366-58.514 86.309-93.623 21.943-36.571 59.977-78.994 83.383-96.549 45.349-33.646 225.28-96.549 318.903-111.177 32.183-5.851 54.126-14.629 49.737-21.943-8.777-16.091-136.046-14.629-220.891 1.463z" />
<glyph unicode="&#xe97d;" d="M607.086 409.966c-52.663 32.183-134.583 121.417-121.417 133.12 2.926 2.926 24.869 8.777 48.274 13.166 24.869 4.389 35.109 4.389 26.331 0-27.794-11.703-23.406-35.109 7.314-35.109 19.017 0 20.48-2.926 4.389-13.166s-14.629-14.629 5.851-26.331c13.166-7.314 24.869-20.48 24.869-27.794s4.389-11.703 11.703-10.24c5.851 1.463 26.331-13.166 43.886-32.183 43.886-45.349 23.406-46.811-51.2-1.463z" />
<glyph unicode="&#xe97e;" d="M149.211 584.046c-43.886 45.349-46.811 54.126-29.257 81.92 24.869 40.96 42.423 32.183 65.829-35.109 30.72-89.234 19.017-103.863-36.571-46.811z" />
<glyph unicode="&#xe97f;" d="M494.446 611.84c13.166 13.166 21.943 13.166 35.109 0s10.24-17.554-17.554-17.554c-27.794 0-30.72 4.389-17.554 17.554z" />
<glyph unicode="&#xe980;" d="M0 448v512h1024v-1024h-1024v512zM911.36 120.32l98.011 24.869-8.777 52.663c-17.554 99.474-23.406 102.4-184.32 138.971-59.977 13.166-130.194 81.92-194.56 191.634-65.829 112.64-109.714 143.36-152.137 103.863-51.2-46.811-131.657 13.166-156.526 117.029-26.331 109.714-61.44 103.863-194.56-29.257-87.771-87.771-105.326-114.103-96.549-138.971 11.703-40.96 463.726-419.84 541.257-456.411 74.606-35.109 215.040-36.571 348.16-4.389z" />
<glyph unicode="&#xe981;" d="M596.846 146.651c-61.44 21.943-538.331 413.989-538.331 443.246s16.091 23.406 73.143-30.72c90.697-86.309 386.194-317.44 446.171-349.623 46.811-24.869 84.846-30.72 182.857-32.183 68.754 0 141.897 4.389 165.303 11.703 29.257 7.314 39.497 5.851 39.497-8.777s-33.646-26.331-100.937-38.034c-130.194-20.48-200.411-19.017-267.703 4.389z" />
<glyph unicode="&#xe982;" d="M674.377 215.406c-74.606 14.629-134.583 51.2-313.051 194.56-114.103 92.16-127.269 106.789-127.269 150.674 0 27.794-13.166 74.606-29.257 106.789-32.183 62.903-35.109 73.143-17.554 73.143 5.851 0 27.794-35.109 49.737-77.531 96.549-196.023 272.091-367.177 425.691-412.526 40.96-11.703 117.029-23.406 169.691-23.406 95.086-1.463 96.549-2.926 30.72-14.629-80.457-13.166-106.789-13.166-188.709 2.926z" />
<glyph unicode="&#xe983;" d="M718.263 273.92c-108.251 19.017-182.857 64.366-295.497 184.32-108.251 115.566-219.429 307.2-187.246 327.68 26.331 16.091 42.423 2.926 42.423-36.571 0-42.423 76.069-149.211 115.566-162.377 16.091-4.389 49.737-42.423 76.069-81.92 26.331-40.96 70.217-89.234 99.474-108.251 55.589-36.571 275.017-109.714 327.68-109.714 26.331 0 27.794-2.926 10.24-14.629-26.331-16.091-80.457-16.091-188.709 1.463z" />
<glyph unicode="&#xe984;" d="M636.343 395.337c-67.291 29.257-181.394 155.063-140.434 155.063 7.314 0 24.869 4.389 36.571 8.777 17.554 7.314 21.943 2.926 14.629-14.629-5.851-16.091 0-23.406 17.554-24.869 16.091 0 20.48-4.389 10.24-8.777-26.331-10.24-23.406-33.646 4.389-33.646 11.703 0 17.554-7.314 13.166-14.629-4.389-8.777 5.851-20.48 24.869-27.794s43.886-23.406 54.126-36.571c23.406-27.794 21.943-27.794-35.109-2.926z" />
<glyph unicode="&#xe985;" d="M138.971 594.286c-40.96 42.423-40.96 43.886-14.629 73.143l27.794 30.72 17.554-33.646c23.406-48.274 38.034-114.103 23.406-114.103-7.314 0-30.72 19.017-54.126 43.886z" />
<glyph unicode="&#xe986;" d="M494.446 604.526c8.777 2.926 26.331 2.926 36.571 0 8.777-4.389 1.463-7.314-19.017-7.314s-27.794 2.926-17.554 7.314z" />
<glyph unicode="&#xe987;" d="M0 448v512h1024v-1024h-1024v512zM920.137 120.32c43.886 11.703 81.92 23.406 86.309 26.331 13.166 14.629-14.629 124.343-38.034 144.823-13.166 11.703-64.366 29.257-112.64 39.497-100.937 20.48-157.989 70.217-241.371 210.651-67.291 112.64-87.771 125.806-147.749 90.697l-46.811-27.794-48.274 52.663c-27.794 29.257-52.663 71.68-58.514 93.623-14.629 71.68-19.017 77.531-52.663 77.531-38.034 0-245.76-197.486-245.76-234.057 0-29.257 58.514-84.846 285.257-273.554 244.297-201.874 257.463-210.651 345.234-223.817 87.771-11.703 157.989-5.851 275.017 23.406z" />
<glyph unicode="&#xe988;" d="M620.251 142.263c-45.349 10.24-111.177 55.589-256 177.006-216.503 178.469-305.737 260.389-305.737 277.943 0 7.314 105.326-73.143 234.057-177.006s258.926-200.411 288.183-215.040c65.829-32.183 251.611-45.349 332.069-23.406 40.96 11.703 52.663 11.703 48.274-1.463-5.851-19.017-163.84-52.663-236.983-51.2-23.406 0-71.68 5.851-103.863 13.166z" />
<glyph unicode="&#xe989;" d="M615.863 234.423c-26.331 8.777-124.343 76.069-215.040 147.749-156.526 122.88-166.766 134.583-166.766 182.857 0 29.257-11.703 76.069-27.794 105.326-14.629 30.72-23.406 57.051-20.48 61.44 4.389 2.926 26.331-30.72 49.737-74.606 61.44-117.029 136.046-213.577 222.354-289.646 112.64-98.011 184.32-127.269 337.92-138.971l133.12-10.24-131.657-1.463c-71.68 0-153.6 7.314-181.394 17.554z" />
<glyph unicode="&#xe98a;" d="M650.971 290.011c-134.583 48.274-301.349 220.891-399.36 416.914-24.869 46.811-27.794 62.903-13.166 74.606s24.869-1.463 43.886-55.589c16.091-43.886 45.349-87.771 80.457-115.566 74.606-64.366 71.68-59.977 121.417-130.194 23.406-33.646 64.366-76.069 90.697-90.697 45.349-27.794 242.834-95.086 317.44-106.789 20.48-2.926-16.091-7.314-80.457-7.314s-136.046 5.851-160.914 14.629z" />
<glyph unicode="&#xe98b;" d="M607.086 417.28c-57.051 33.646-133.12 122.88-111.177 130.194 19.017 5.851 59.977-30.72 59.977-54.126 0-8.777 7.314-16.091 14.629-16.091 8.777 0 14.629-10.24 14.629-21.943s11.703-21.943 27.794-21.943c14.629 0 35.109-10.24 45.349-21.943 24.869-29.257 1.463-27.794-51.2 5.851z" />
<glyph unicode="&#xe98c;" d="M143.36 592.823c-46.811 42.423-48.274 42.423-20.48 73.143 16.091 17.554 30.72 27.794 33.646 24.869 10.24-10.24 46.811-140.434 40.96-140.434-4.389 0-27.794 19.017-54.126 42.423z" />
<glyph unicode="&#xe98d;" d="M494.446 604.526c10.24 4.389 23.406 2.926 27.794-1.463 5.851-4.389-2.926-8.777-19.017-7.314-16.091 0-20.48 4.389-8.777 8.777z" />
<glyph unicode="&#xe98e;" glyph-name="messages" horiz-adv-x="1097" d="M146.286 104.229c-14.629 29.257-19.505 75.581-12.19 99.962 12.19 41.448 4.876 48.762-60.952 48.762h-75.581l7.314 346.21 7.314 348.648h863.086l-14.629-177.981c-12.19-138.971-7.314-175.543 19.505-175.543 24.381 0 24.381-7.314 2.438-29.257-17.067-17.067-29.257-92.648-29.257-170.667v-141.41h-109.714c-60.952 0-109.714-12.19-109.714-24.381 0-31.695 187.733-31.695 207.238-2.438 7.314 14.629 34.133 21.943 60.952 19.505 24.381-2.438 39.010-12.19 34.133-21.943-7.314-9.752 0-19.505 12.19-19.505 36.571 0 34.133 56.076-2.438 95.086-24.381 26.819-24.381 31.695 0 17.067 19.505-12.19 29.257 7.314 29.257 68.267 0 70.705-9.752 87.771-48.762 87.771-26.819 0-48.762 17.067-48.762 36.571 0 24.381 26.819 36.571 85.333 36.571h85.333v-195.048c0-156.038-7.314-195.048-36.571-195.048-19.505 0-36.571-21.943-36.571-48.762 0-63.39-43.886-60.952-117.029 4.876-34.133 31.695-53.638 41.448-43.886 24.381s2.438-29.257-21.943-29.257c-21.943 0-31.695 9.752-24.381 24.381 9.752 14.629-24.381 24.381-82.895 24.381-73.143 0-107.276 12.19-129.219 48.762-53.638 82.895-160.914 63.39-277.943-51.2-99.962-97.524-102.4-99.962-131.657-48.762zM568.076 326.095h212.114v533.943l-707.048 14.629v-553.448l92.648 4.876c160.914 7.314 163.352 4.876 99.962-68.267l-58.514-65.829 75.581 65.829c68.267 63.39 87.771 68.267 285.257 68.267zM146.286 538.21c0 87.771 48.762 104.838 297.448 104.838 312.076 0 312.076-43.886 2.438-56.076l-238.933-7.314 238.933-4.876c309.638-7.314 316.952-53.638 7.314-53.638-126.781 0-246.248-7.314-268.19-14.629-26.819-9.752-39.010 0-39.010 31.695zM195.048 704c0 24.381 26.819 36.571 80.457 39.010 446.171 9.752 431.543 12.19 431.543-34.133 0-36.571-29.257-41.448-256-41.448-212.114 0-256 7.314-256 36.571z" />
<glyph unicode="&#xe98f;" glyph-name="shipping" horiz-adv-x="1001" d="M864.711-52.622c0 4.551 20.48 20.48 45.511 34.133 36.409 20.48 40.96 18.204 31.858-11.378-11.378-29.582-77.369-50.062-77.369-22.756zM395.947 15.644c-27.307 18.204-52.338 27.307-59.164 22.756-27.307-29.582-13.653 138.809 15.929 170.667 47.787 52.338 22.756 127.431-29.582 86.471-29.582-25.031-31.858-20.48-22.756 47.787 13.653 95.573-47.787 268.516-79.644 225.28-13.653-20.48-15.929-13.653-9.102 22.756 18.204 81.92-4.551 118.329-75.093 118.329-77.369 0-102.4 50.062-45.511 86.471 22.756 13.653 45.511 18.204 52.338 9.102 4.551-9.102 4.551 0-2.276 18.204-31.858 106.951-31.858 113.778 4.551 113.778 20.48 0 36.409-11.378 36.409-25.031 0-11.378 11.378-15.929 25.031-6.827 15.929 9.102 20.48 0 11.378-27.307-6.827-25.031 6.827-84.196 31.858-134.258 25.031-52.338 43.236-75.093 43.236-50.062 2.276 25.031 29.582 50.062 70.542 63.716 36.409 13.653 63.716 31.858 59.164 38.684-4.551 9.102 20.48 18.204 59.164 20.48 56.889 4.551 70.542-6.827 100.124-72.818 18.204-43.236 40.96-79.644 52.338-79.644 9.102 0 13.653-25.031 6.827-56.889l-9.102-56.889 81.92 34.133c111.502 47.787 175.218 45.511 157.013-4.551-9.102-20.48-4.551-31.858 6.827-22.756 11.378 6.827 22.756-4.551 22.756-25.031 2.276-20.48 9.102-65.991 20.48-100.124 13.653-54.613 6.827-65.991-36.409-84.196-45.511-18.204-47.787-22.756-11.378-22.756 22.756-2.276 56.889 15.929 72.818 36.409 15.929 22.756 34.133 34.133 43.236 25.031 20.48-20.48-56.889-134.258-81.92-118.329-11.378 6.827-20.48 0-20.48-13.653s-9.102-20.48-20.48-13.653c-29.582 18.204-95.573-9.102-81.92-31.858 6.827-11.378 0-27.307-13.653-36.409-18.204-9.102-20.48-6.827-11.378 9.102 20.48 34.133-13.653 34.133-88.747 0-31.858-13.653-56.889-43.236-56.889-65.991 0-40.96-100.124-134.258-145.636-134.258-13.653 0-47.787 15.929-72.818 34.133zM518.827 70.258c18.204 9.102 27.307 43.236 22.756 72.818-4.551 43.236-20.48 54.613-75.093 54.613-75.093 0-102.4-56.889-56.889-113.778 31.858-38.684 65.991-43.236 109.227-13.653zM625.778 322.844c-4.551 9.102 18.204 27.307 52.338 43.236 59.164 25.031 59.164 25.031 15.929-11.378l-45.511-38.684 45.511 18.204c25.031 9.102 75.093 27.307 109.227 38.684 50.062 18.204 59.164 31.858 47.787 72.818-9.102 25.031-25.031 52.338-34.133 54.613-11.378 4.551-15.929 18.204-6.827 29.582 20.48 31.858-15.929 25.031-179.769-40.96-145.636-61.44-152.462-65.991-138.809-127.431 18.204-81.92-29.582-81.92-61.44 0-40.96 116.053-118.329 279.893-127.431 273.067-4.551-4.551 25.031-86.471 63.716-182.044 52.338-129.707 81.92-175.218 120.604-179.769 54.613-9.102 154.738 25.031 138.809 50.062zM564.338 607.289c6.827 6.827-43.236 147.911-54.613 147.911-6.827 0-43.236-15.929-79.644-36.409-50.062-25.031-65.991-45.511-54.613-72.818 9.102-20.48 20.48-56.889 27.307-77.369 11.378-36.409 15.929-36.409 84.196-2.276 38.684 18.204 72.818 36.409 77.369 40.96zM414.151 133.973c4.551 22.756 29.582 43.236 59.164 47.787 38.684 6.827 50.062-4.551 50.062-38.684 0-36.409-13.653-47.787-59.164-47.787-43.236 0-56.889 11.378-50.062 38.684zM45.511 361.529c0 27.307 86.471 109.227 102.4 93.298 6.827-4.551-13.653-34.133-45.511-63.716s-56.889-43.236-56.889-29.582z" />
<glyph unicode="&#xe990;" glyph-name="timer" horiz-adv-x="935" d="M235.965-39.513c11.13 17.809-131.339 120.209-158.052 113.53-11.13-4.452-15.583 0-6.678 6.678 8.904 8.904-4.452 55.652-26.713 102.4-53.426 102.4-60.104 327.235-11.13 418.504 17.809 35.617 24.487 71.235 15.583 80.139-8.904 11.13-2.226 8.904 15.583 0 24.487-13.357 28.939-8.904 17.809 17.809-6.678 17.809 2.226 46.748 20.035 60.104 17.809 15.583 31.165 22.261 31.165 15.583 0-8.904 46.748 11.13 102.4 40.070 57.878 31.165 117.983 55.652 133.565 55.652 17.809 0 31.165 20.035 31.165 44.522 0 33.391 15.583 44.522 55.652 44.522s55.652-11.13 55.652-44.522c0-24.487 13.357-44.522 28.939-44.522 17.809 0 80.139-24.487 140.243-55.652 109.078-55.652 160.278-73.461 97.948-33.391-28.939 17.809-28.939 24.487 2.226 55.652 33.391 33.391 40.070 33.391 95.722-22.261 31.165-31.165 57.878-66.783 57.878-75.687 0-26.713-64.557-51.2-91.27-35.617-11.13 6.678 6.678-40.070 35.617-104.626 60.104-129.113 66.783-207.026 33.391-331.687-31.165-109.078-182.539-278.261-278.261-309.426-75.687-24.487-414.052-24.487-398.47 2.226zM658.922 42.852c75.687 40.070 160.278 153.6 191.443 251.548 48.974 169.183-44.522 382.887-202.574 465.252-164.73 82.365-414.052 28.939-514.226-111.304-62.33-89.043-82.365-351.722-33.391-447.443 48.974-93.496 164.73-180.313 215.93-162.504 28.939 8.904 40.070 4.452 31.165-8.904-31.165-51.2 213.704-40.070 311.652 13.357zM647.791 74.017c4.452 4.452 40.070 31.165 75.687 62.33l66.783 55.652-53.426-62.33c-31.165-33.391-64.557-60.104-75.687-60.104-13.357 0-17.809 2.226-13.357 4.452zM422.957 303.304c0 17.809-8.904 33.391-20.035 33.391-24.487 0-42.296 66.783-31.165 106.852 6.678 13.357 20.035 22.261 31.165 13.357 11.13-6.678 20.035 51.2 20.035 133.565 0 89.043-8.904 146.922-24.487 146.922-11.13 0-17.809 8.904-11.13 20.035s35.617 20.035 62.33 20.035c48.974 0 51.2-6.678 44.522-151.374-4.452-84.591 2.226-171.409 15.583-198.122 17.809-31.165 17.809-60.104-2.226-100.174-26.713-62.33-84.591-77.913-84.591-24.487zM184.765 821.983c8.904 13.357 48.974 46.748 86.817 75.687 37.843 26.713 62.33 37.843 55.652 22.261-8.904-13.357-48.974-46.748-86.817-75.687-37.843-26.713-62.33-37.843-55.652-22.261z" />
<glyph unicode="&#xea90;" glyph-name="facebook1" d="M608 768h160v192h-160c-123.514 0-224-100.486-224-224v-96h-128v-192h128v-512h192v512h160l32 192h-192v96c0 17.346 14.654 32 32 32z" />
<glyph unicode="&#xea92;" glyph-name="instagram" d="M512 867.8c136.8 0 153-0.6 206.8-3 50-2.2 77-10.6 95-17.6 23.8-9.2 41-20.4 58.8-38.2 18-18 29-35 38.4-58.8 7-18 15.4-45.2 17.6-95 2.4-54 3-70.2 3-206.8s-0.6-153-3-206.8c-2.2-50-10.6-77-17.6-95-9.2-23.8-20.4-41-38.2-58.8-18-18-35-29-58.8-38.4-18-7-45.2-15.4-95-17.6-54-2.4-70.2-3-206.8-3s-153 0.6-206.8 3c-50 2.2-77 10.6-95 17.6-23.8 9.2-41 20.4-58.8 38.2-18 18-29 35-38.4 58.8-7 18-15.4 45.2-17.6 95-2.4 54-3 70.2-3 206.8s0.6 153 3 206.8c2.2 50 10.6 77 17.6 95 9.2 23.8 20.4 41 38.2 58.8 18 18 35 29 58.8 38.4 18 7 45.2 15.4 95 17.6 53.8 2.4 70 3 206.8 3zM512 960c-139 0-156.4-0.6-211-3-54.4-2.4-91.8-11.2-124.2-23.8-33.8-13.2-62.4-30.6-90.8-59.2-28.6-28.4-46-57-59.2-90.6-12.6-32.6-21.4-69.8-23.8-124.2-2.4-54.8-3-72.2-3-211.2s0.6-156.4 3-211c2.4-54.4 11.2-91.8 23.8-124.2 13.2-33.8 30.6-62.4 59.2-90.8 28.4-28.4 57-46 90.6-59 32.6-12.6 69.8-21.4 124.2-23.8 54.6-2.4 72-3 211-3s156.4 0.6 211 3c54.4 2.4 91.8 11.2 124.2 23.8 33.6 13 62.2 30.6 90.6 59s46 57 59 90.6c12.6 32.6 21.4 69.8 23.8 124.2 2.4 54.6 3 72 3 211s-0.6 156.4-3 211c-2.4 54.4-11.2 91.8-23.8 124.2-12.6 34-30 62.6-58.6 91-28.4 28.4-57 46-90.6 59-32.6 12.6-69.8 21.4-124.2 23.8-54.8 2.6-72.2 3.2-211.2 3.2v0zM512 711c-145.2 0-263-117.8-263-263s117.8-263 263-263 263 117.8 263 263c0 145.2-117.8 263-263 263zM512 277.4c-94.2 0-170.6 76.4-170.6 170.6s76.4 170.6 170.6 170.6c94.2 0 170.6-76.4 170.6-170.6s-76.4-170.6-170.6-170.6zM846.8 721.4c0-33.91-27.49-61.4-61.4-61.4s-61.4 27.49-61.4 61.4c0 33.91 27.49 61.4 61.4 61.4s61.4-27.49 61.4-61.4z" />
</font>
</defs>
</svg>
