<!DOCTYPE svg PUBLIC "-//W3C//DTD SVG 20010904//EN" "http://www.w3.org/TR/2001/REC-SVG-20010904/DTD/svg10.dtd">
<svg version="1.0" xmlns="http://www.w3.org/2000/svg" width="45px" height="42px" viewBox="0 0 450 420" preserveAspectRatio="xMidYMid meet">
<g id="layer101" fill="#ffffff" stroke="none">
 <path d="M60 351 c-6 -12 -8 -31 -5 -41 5 -17 2 -20 -25 -20 l-31 0 3 -142 3 -143 177 0 177 0 -6 73 c-5 57 -3 72 8 72 10 0 10 3 1 12 -7 7 -12 38 -12 70 l0 58 -45 0 c-25 0 -45 5 -45 10 0 13 77 13 85 1 3 -6 14 -9 25 -8 10 1 16 5 14 9 -3 4 0 8 5 8 15 0 14 -23 -1 -39 -10 -11 -10 -13 0 -7 8 5 12 -3 12 -28 0 -29 -4 -36 -20 -36 -11 0 -20 -7 -20 -15 0 -10 11 -15 35 -15 l35 0 0 80 c0 64 -3 80 -15 80 -8 0 -15 9 -15 20 0 26 -18 25 -48 -2 -14 -13 -22 -17 -18 -10 4 7 1 12 -9 12 -9 0 -13 -4 -10 -10 4 -6 -10 -10 -34 -10 -30 0 -44 -5 -53 -20 -22 -34 -66 -26 -114 21 -41 40 -42 41 -54 20z m173 -91 l87 0 0 -109 0 -110 -145 -3 -145 -3 0 113 0 114 38 -2 c66 -3 67 -2 41 28 l-24 27 31 -27 c28 -26 36 -28 117 -28z"/>
 <path d="M60 173 c0 -36 20 -43 122 -43 128 0 128 18 1 23 l-98 3 98 2 c127 3 130 22 3 22 -52 0 -101 3 -110 6 -11 4 -16 0 -16 -13z"/>
 <path d="M80 105 c0 -10 11 -15 33 -16 183 -4 177 -5 177 14 0 15 -12 17 -105 17 -87 0 -105 -3 -105 -15z"/>
 </g>

</svg>