<!DOCTYPE svg PUBLIC "-//W3C//DTD SVG 20010904//EN" "http://www.w3.org/TR/2001/REC-SVG-20010904/DTD/svg10.dtd">
<svg version="1.0" xmlns="http://www.w3.org/2000/svg" width="44px" height="45px" viewBox="0 0 440 450" preserveAspectRatio="xMidYMid meet">
<g id="layer101" fill="#ffffff" stroke="none">
 <path d="M380 445 c0 -2 9 -9 20 -15 16 -9 18 -8 14 5 -5 13 -34 22 -34 10z"/>
 <path d="M174 415 c-12 -8 -23 -12 -26 -10 -12 13 -6 -61 7 -75 21 -23 10 -56 -13 -38 -13 11 -14 9 -10 -21 6 -42 -21 -118 -35 -99 -6 9 -7 6 -4 -10 8 -36 -2 -52 -33 -52 -34 0 -45 -22 -20 -38 10 -6 20 -8 23 -4 2 4 2 0 -1 -8 -14 -47 -14 -50 2 -50 9 0 16 5 16 11 0 5 5 7 11 3 7 -4 9 0 5 12 -3 11 3 37 14 59 11 23 19 33 19 22 1 -11 13 -22 31 -28 16 -6 28 -14 26 -17 -2 -4 9 -8 26 -9 25 -2 31 3 44 32 8 19 18 35 23 35 4 0 6 11 3 25 l-4 25 36 -15 c49 -21 77 -20 69 2 -4 9 -2 14 3 10 5 -3 10 2 10 11 1 9 4 29 9 44 6 24 3 29 -16 37 -20 8 -21 10 -5 10 10 1 25 -7 32 -16 7 -10 15 -15 19 -11 9 9 -25 59 -36 52 -5 -3 -9 0 -9 6 0 6 -4 9 -9 6 -13 -8 -42 4 -36 14 3 5 0 12 -6 16 -8 4 -9 3 -5 -4 9 -15 -6 -15 -39 0 -14 6 -25 19 -25 29 0 18 -44 59 -64 59 -6 0 -21 -7 -32 -15z m54 -24 c8 -4 12 -19 10 -32 -2 -19 -9 -24 -33 -24 -33 0 -45 25 -25 50 14 17 29 19 48 6z m47 -111 c-2 -4 8 -12 23 -19 26 -11 26 -11 7 5 l-20 17 20 -8 c11 -4 33 -12 48 -17 22 -8 26 -14 21 -32 -4 -11 -11 -23 -15 -24 -5 -2 -7 -8 -3 -13 9 -14 -7 -11 -79 18 -64 27 -67 29 -61 56 8 36 -13 36 -27 0 -18 -51 -52 -123 -56 -120 -2 2 11 38 28 80 23 57 36 77 53 79 24 4 68 -11 61 -22z m-27 -125 c3 -3 -19 -65 -24 -65 -3 0 -19 7 -35 16 -22 11 -29 20 -24 32 4 9 9 25 12 34 5 16 7 16 37 1 17 -8 32 -16 34 -18z"/>
 <path d="M182 363 c2 -10 13 -19 26 -21 17 -3 22 2 22 17 0 16 -6 21 -26 21 -19 0 -25 -5 -22 -17z"/>
 <path d="M20 263 c0 -12 38 -48 45 -41 3 2 -6 15 -20 28 -14 13 -25 19 -25 13z"/>
 </g>

</svg>