<!DOCTYPE svg PUBLIC "-//W3C//DTD SVG 20010904//EN" "http://www.w3.org/TR/2001/REC-SVG-20010904/DTD/svg10.dtd">

<svg style="background-color: #3366CC" version="1.0" xmlns="http://www.w3.org/2000/svg" width="42px" height="46px" viewBox="0 0 420 460" preserveAspectRatio="xMidYMid meet">
<g id="layer101" fill="#ffffff" stroke="none">
 <path d="M106 449 c5 -8 -59 -54 -71 -51 -5 2 -7 0 -3 -3 4 -4 -2 -25 -12 -46 -24 -46 -27 -147 -5 -188 8 -16 11 -32 7 -36 -4 -5 -1 -4 7 0 11 6 13 4 8 -8 -3 -8 1 -21 9 -27 8 -7 14 -10 14 -7 0 4 21 -5 46 -18 26 -14 53 -25 60 -25 8 0 14 -9 14 -20 0 -15 7 -20 25 -20 18 0 25 5 25 20 0 11 6 20 13 20 8 0 36 11 63 25 49 25 72 33 44 15 -13 -8 -13 -11 1 -25 15 -15 18 -15 43 10 14 14 26 30 26 34 0 12 -29 23 -41 16 -5 -3 3 18 16 47 27 58 30 93 15 149 -14 49 -82 125 -125 139 -34 11 -186 11 -179 -1z m190 -37 c34 -18 72 -69 86 -113 22 -76 -20 -172 -91 -209 -74 -37 -186 -13 -231 50 -28 40 -37 158 -15 201 22 42 74 81 97 73 13 -4 18 -2 14 4 -14 23 96 18 140 -6z"/>
 <path d="M291 398 c2 -2 18 -14 34 -28 l30 -25 -24 28 c-14 15 -29 27 -34 27 -6 0 -8 -1 -6 -2z"/>
 <path d="M190 295 c0 -8 -4 -15 -9 -15 -11 0 -19 -30 -14 -48 3 -6 9 -10 14 -6 5 3 9 -23 9 -60 0 -40 -4 -66 -11 -66 -5 0 -8 -4 -5 -9 3 -5 16 -9 28 -9 22 0 23 3 20 68 -2 38 1 77 7 89 8 14 8 27 -1 45 -12 28 -38 35 -38 11z"/>
 <path d="M83 62 c4 -6 22 -21 39 -34 17 -12 28 -17 25 -10 -4 6 -22 21 -39 34 -17 12 -28 17 -25 10z"/>
 </g>

</svg>
